<?xml version="1.0" encoding="UTF-8"?>
<svg xmlns="http://www.w3.org/2000/svg" width="533" height="108" viewBox="0 0 533 108" fill="none">
  <path d="M50.608 0.613617H57.0616C60.4756 1.03264 62.7035 1.34404 63.7453 1.54783C85.3628 5.78614 101.529 22.1108 106.053 43.6321C106.302 44.8251 106.625 47.1755 107.021 50.6834V57.1439C106.657 60.2945 106.353 62.4893 106.108 63.728C101.821 85.3935 85.4074 101.849 63.7419 106.156C62.1712 106.467 59.9066 106.777 56.9483 107.087H50.5805C47.929 106.812 45.8201 106.527 44.2539 106.231C22.3892 102.117 5.86873 85.5824 1.47587 63.8104C1.21255 62.5076 0.903433 60.2728 0.548523 57.1061V50.5494C0.944648 47.0736 1.28467 44.682 1.5686 43.3745C6.2225 21.7949 22.5815 5.47702 44.3364 1.46197C45.5408 1.23986 47.6313 0.957078 50.608 0.613617ZM90.5765 37.8002C90.5307 37.8231 90.4952 37.8127 90.47 37.7692C82.2853 24.0686 68.2687 15.6126 52.1363 16.5949C37.9445 17.457 25.4494 26.9021 19.4663 39.5449C19.3926 39.7006 19.3756 39.8773 19.4182 40.0446C19.4608 40.212 19.5604 40.3595 19.6999 40.462L25.2983 44.5698C25.3497 44.6078 25.4087 44.6342 25.4712 44.647C25.5338 44.6599 25.5983 44.6589 25.6602 44.6441C25.7222 44.6294 25.78 44.6012 25.8296 44.5617C25.8792 44.5221 25.9195 44.4721 25.9474 44.4152C27.4564 41.3882 29.3362 38.6119 31.5871 36.0863C31.6654 36.0001 31.7067 35.8866 31.7022 35.7698C31.6977 35.6531 31.6477 35.5423 31.563 35.4612L29.334 33.3214C28.9676 32.9688 29.0386 32.8005 29.5469 32.8165C30.6735 32.8532 31.8824 33.0489 33.1739 33.4039C33.7131 33.5515 34.1046 33.5412 34.5683 33.1669C35.6193 32.3288 36.6943 31.5205 37.7934 30.742C39.3974 29.6052 40.2904 28.4511 41.6367 26.933C44.0455 24.2128 47.0233 21.6987 50.5702 19.3906C50.7327 19.283 50.8255 19.2269 50.8484 19.2224C51.2147 19.1422 51.2731 19.243 51.0235 19.5246C39.7546 32.1159 32.6003 46.4485 30.433 63.2987C30.4101 63.4865 30.3174 63.578 30.1548 63.5735C30.1119 63.5735 30.07 63.56 30.0349 63.5347C29.9999 63.5095 29.9733 63.4738 29.9591 63.4326C29.263 61.4314 28.7672 59.3787 28.4719 57.2744C28.4637 57.2204 28.4417 57.1694 28.408 57.1265C28.3743 57.0835 28.33 57.05 28.2795 57.0293C28.229 57.0085 28.174 57.0012 28.1198 57.008C28.0657 57.0149 28.0142 57.0357 27.9704 57.0683C26.7179 58.0002 25.4723 58.9139 24.2336 59.8091C23.818 60.108 23.684 60.5029 23.739 60.9803C24.3675 66.3452 26.3871 70.6144 29.2378 75.1825C29.7827 76.0594 30.4365 76.8837 31.199 77.6554C33.1258 79.6097 35.0972 81.904 37.0653 83.4427C38.4986 84.5624 40.0797 85.5825 41.8085 86.5029C41.9123 86.557 41.9956 86.644 42.0458 86.7505C42.096 86.8571 42.1103 86.9775 42.0867 87.0937C42.0752 87.1463 42.0031 87.1715 41.8703 87.1692C41.7993 87.1692 41.7272 87.1498 41.6539 87.1109C40.809 86.6644 40.0019 86.156 39.1398 85.7611C37.4637 84.9951 35.9765 84.3013 34.455 83.1542C32.7823 81.8902 30.9894 80.8015 29.5538 79.2834C28.9149 78.6079 28.2784 77.929 27.6441 77.2467C24.4637 73.8281 22.1682 69.9103 20.7577 65.4934C19.9163 62.8591 19.432 59.215 19.9712 56.4913C20.0307 56.1913 20.1132 55.9887 20.2185 55.8834C20.4108 55.6979 20.6719 55.7059 21.0016 55.9074C21.3405 56.1158 21.6885 56.331 22.0457 56.5531C22.0755 56.5723 22.1097 56.5835 22.1451 56.5859C22.1805 56.5882 22.216 56.5816 22.2484 56.5666C22.2808 56.5516 22.309 56.5287 22.3306 56.4999C22.3522 56.4712 22.3664 56.4375 22.372 56.402C22.8368 53.4162 23.5924 50.5082 24.6388 47.6781C24.6844 47.5538 24.6886 47.4182 24.6508 47.2913C24.6131 47.1645 24.5354 47.0532 24.4293 46.974L12.8547 38.3394C12.8128 38.3083 12.7643 38.2871 12.713 38.2775C12.6616 38.2679 12.6088 38.2702 12.5585 38.2841C12.5081 38.298 12.4616 38.3232 12.4225 38.3578C12.3834 38.3924 12.3526 38.4354 12.3326 38.4836C11.3068 40.9795 10.5203 43.6104 9.97306 46.3764C9.92498 46.6237 10.0452 47.0255 10.2238 47.2625C11.8484 49.392 13.1432 51.4081 13.8095 53.9943C14.4381 56.4467 14.1736 59.9568 14.5514 62.44C17.4639 81.4472 34.4309 95.8382 53.5377 96.3431C53.559 96.3436 53.5802 96.3389 53.5994 96.3296C53.6187 96.3202 53.6354 96.3064 53.6481 96.2892C53.6609 96.2721 53.6694 96.2521 53.6729 96.231C53.6764 96.2099 53.6748 96.1883 53.6682 96.1679C53.627 96.0374 53.5388 95.9138 53.4037 95.797C49.3646 92.2731 45.8464 88.2901 42.8492 83.848C36.8248 74.9146 31.9992 59.9431 39.7992 50.6009C43.2029 46.5206 47.4721 43.1959 51.8822 40.1941C53.5411 39.0675 54.6814 38.5832 56.4021 39.7235C60.8053 42.6452 64.5857 46.1085 67.7432 50.1132C72.0021 55.5193 73.0634 61.657 72.0777 68.3785C71.8063 70.2126 71.1091 72.1497 70.5802 74.0422C69.9929 76.1441 68.7083 77.8924 67.6642 79.7711C67.3757 80.2886 67.0059 80.7362 66.5548 81.114C66.5182 81.1438 66.4804 81.1621 66.4415 81.169C66.3842 81.1804 66.3419 81.1781 66.3144 81.1621C66.2716 81.1375 66.2392 81.0981 66.2234 81.0513C66.2076 81.0045 66.2094 80.9535 66.2285 80.9079C67.7089 77.3325 69.5292 73.7674 69.6666 69.6939C69.7261 67.9217 69.6941 66.1529 69.5704 64.3875C69.5681 64.3376 69.5553 64.2884 69.5326 64.2432C69.2739 63.7234 69.0083 63.6651 68.7358 64.0681C66.9269 66.7379 64.9303 69.2474 62.7458 71.5967C60.7194 73.7743 59.5379 75.3507 59.1635 78.016C58.9827 79.3097 59.1532 80.8599 59.6753 82.6665C60.8179 86.6094 62.6073 90.0806 65.0436 93.0802C65.8702 94.0991 65.7133 94.2835 64.5731 93.6332C62.3406 92.3624 59.9443 90.8351 57.3844 89.0514C55.4026 87.6707 53.4827 85.9156 51.7448 84.528C49.526 82.7558 48.0869 80.9354 46.3628 79.0017C40.6991 72.6546 36.3852 63.388 38.4528 54.7603C38.4566 54.7437 38.4564 54.7264 38.4524 54.7099C38.4484 54.6934 38.4405 54.678 38.4295 54.6651C38.4186 54.6521 38.4047 54.6418 38.3891 54.6351C38.3735 54.6284 38.3565 54.6254 38.3395 54.6263L38.2296 54.6332C38.1603 54.6385 38.0939 54.6628 38.0375 54.7033C37.9812 54.7439 37.9371 54.7993 37.9102 54.8633C34.5752 62.8144 38.4219 72.919 42.9625 79.6234C44.2264 81.4918 45.456 83.4255 46.9157 85.0844C50.3252 88.9633 54.07 92.494 58.1503 95.6768C58.717 96.1164 59.1223 96.0786 59.7921 95.9722C68.3614 94.6121 75.9382 91.7098 82.4914 85.919C84.3495 84.2807 85.9535 82.2646 87.5334 80.3584C88.1723 79.5913 88.7115 78.8472 89.1511 78.1259C91.2073 74.7623 92.9727 71.2659 94.4473 67.6366C94.4702 67.5805 94.4735 67.5181 94.4568 67.4591C94.44 67.4001 94.4041 67.3478 94.3546 67.3103L84.432 59.9328C84.3895 59.9009 84.34 59.8797 84.2876 59.8711C84.2352 59.8624 84.1814 59.8665 84.1307 59.8829C84.08 59.8994 84.0338 59.9278 83.996 59.9657C83.9582 60.0037 83.9298 60.0501 83.9133 60.1011C82.306 65.1912 79.6567 69.7294 75.9657 73.7159C75.7825 73.9128 75.6348 74.0341 75.5226 74.0799C75.2547 74.1876 75.1791 74.1177 75.2959 73.8704C76.9308 70.3877 78.8782 66.9325 79.6922 63.2094C80.5646 59.2321 79.809 54.9972 78.2188 51.3222C76.79 48.0113 74.9937 44.4908 72.9638 41.2279C71.7548 39.2816 70.5184 37.3514 69.2544 35.4371C68.8583 34.8372 68.8423 34.361 69.2063 34.0083C70.3638 32.8887 71.693 32.0644 69.9997 30.4226C66.9292 27.446 63.7774 24.5586 60.5443 21.7605C60.3977 21.6323 60.3027 21.5316 60.2592 21.4583C60.1081 21.2087 60.1756 21.1492 60.4618 21.2797C63.2919 22.5848 65.6206 24.151 68.3786 26.2324C69.5739 27.1323 70.8859 27.5822 72.2357 28.1798C74.672 29.256 77.0052 30.5199 79.2354 31.9716C80.6161 32.8715 81.3133 32.2773 82.6391 32.2292C82.7036 32.2271 82.7674 32.2424 82.8239 32.2733C82.8805 32.3043 82.9277 32.3499 82.9607 32.4053C82.9936 32.4607 83.0112 32.5239 83.0114 32.5884C83.0116 32.6529 82.9945 32.7162 82.962 32.7719L82.2956 33.895C82.2315 34.0026 82.2315 34.1102 82.2956 34.2179C82.9162 35.2643 83.8252 35.7611 85.0227 35.7085C85.0539 35.7073 85.085 35.7133 85.1135 35.7259C85.1421 35.7385 85.1674 35.7574 85.1876 35.7812C85.2078 35.805 85.2223 35.8331 85.23 35.8633C85.2377 35.8936 85.2385 35.9252 85.2322 35.9558C85.033 36.9896 85.4624 37.3949 86.084 38.0921C89.8461 42.3258 92.5045 47.1411 94.0592 52.5381C94.7392 54.8976 95.1514 57.7518 95.5876 60.3621C95.6082 60.4903 95.6838 60.5476 95.8143 60.5338C95.8532 60.5316 95.8898 60.5212 95.9242 60.5029C96.0249 60.4571 96.0799 60.3793 96.089 60.2694C97.6277 43.2646 90.5044 27.5788 75.7561 18.7999C68.3282 14.3784 60.2558 12.3921 51.5387 12.8408C35.8288 13.6445 22.6056 22.6913 15.5955 36.6358C15.3986 37.0274 15.4753 37.3548 15.8256 37.6181L17.0106 38.5077C17.3495 38.7618 17.6128 38.6977 17.8005 38.3153C23.1826 27.2147 32.5625 19.2017 44.5252 16.2342C50.5221 14.7471 57.247 14.6165 63.3366 16.0316C74.9696 18.7415 85.5276 26.751 90.6761 37.7315C90.6784 37.7406 90.6761 37.7475 90.6692 37.7521L90.5765 37.8002ZM44.1406 50.3399C43.9723 52.3251 45.5659 54.5817 47.2283 55.4918C48.2415 56.0448 50.8449 56.1891 51.7723 55.4712C51.8354 55.4222 51.8861 55.3587 51.9199 55.2863C51.9537 55.2139 51.9698 55.1345 51.9668 55.0548C51.9638 54.9751 51.9417 54.8975 51.9025 54.8283C51.8633 54.7591 51.808 54.7005 51.7414 54.6572L44.7588 50.0411C44.7011 50.0026 44.6344 49.9798 44.5652 49.975C44.496 49.9703 44.4267 49.9836 44.3643 50.0138C44.3018 50.044 44.2483 50.0899 44.2091 50.1471C44.1699 50.2043 44.1462 50.2708 44.1406 50.3399ZM59.3662 56.0105C62.9622 56.2955 65.2806 53.6474 65.4626 50.3365C65.4673 50.251 65.4383 50.1671 65.3818 50.1029C65.3252 50.0387 65.2457 49.9992 65.1604 49.993C65.0047 49.9816 64.8455 50.0331 64.683 50.1476C62.4436 51.7092 60.1069 53.2101 57.6729 54.6504C57.6152 54.6844 57.5663 54.7317 57.5305 54.7884C57.4946 54.8451 57.4727 54.9094 57.4667 54.9762C57.4607 55.043 57.4706 55.1103 57.4957 55.1725C57.5208 55.2347 57.5604 55.29 57.6111 55.3338C58.0668 55.73 58.6518 55.9555 59.3662 56.0105Z" fill="black"></path>
  <path d="M90.6761 37.7315C85.5276 26.751 74.9696 18.7415 63.3366 16.0316C57.247 14.6165 50.5221 14.7471 44.5252 16.2342C32.5625 19.2017 23.1826 27.2147 17.8005 38.3153C17.6128 38.6977 17.3495 38.7618 17.0106 38.5077L15.8256 37.6181C15.4753 37.3548 15.3986 37.0274 15.5955 36.6358C22.6056 22.6913 35.8288 13.6445 51.5387 12.8408C60.2558 12.3921 68.3282 14.3784 75.7561 18.7999C90.5044 27.5788 97.6277 43.2646 96.089 60.2694C96.0799 60.3793 96.0249 60.4571 95.9242 60.5029C95.8898 60.5212 95.8532 60.5316 95.8143 60.5338C95.6838 60.5476 95.6082 60.4903 95.5876 60.3621C95.1514 57.7518 94.7392 54.8976 94.0592 52.5381C92.5045 47.1411 89.8461 42.3258 86.084 38.0921C85.4624 37.3949 85.033 36.9896 85.2322 35.9558C85.2385 35.9252 85.2377 35.8936 85.23 35.8633C85.2223 35.8331 85.2078 35.805 85.1876 35.7812C85.1674 35.7574 85.1421 35.7385 85.1135 35.7259C85.085 35.7133 85.0539 35.7073 85.0227 35.7085C83.8252 35.7611 82.9162 35.2643 82.2956 34.2179C82.2315 34.1102 82.2315 34.0026 82.2956 33.895L82.962 32.7719C82.9945 32.7162 83.0116 32.6529 83.0114 32.5884C83.0112 32.5239 82.9936 32.4607 82.9607 32.4053C82.9277 32.3499 82.8805 32.3043 82.8239 32.2733C82.7674 32.2424 82.7036 32.2271 82.6391 32.2292C81.3133 32.2773 80.6161 32.8715 79.2354 31.9716C77.0052 30.5199 74.672 29.256 72.2357 28.1798C70.8859 27.5822 69.5739 27.1323 68.3786 26.2324C65.6206 24.151 63.2919 22.5848 60.4618 21.2797C60.1756 21.1492 60.1081 21.2087 60.2592 21.4583C60.3027 21.5316 60.3977 21.6323 60.5443 21.7605C63.7774 24.5586 66.9292 27.446 69.9997 30.4226C71.693 32.0644 70.3638 32.8887 69.2063 34.0083C68.8423 34.361 68.8583 34.8372 69.2544 35.4371C70.5184 37.3514 71.7548 39.2816 72.9638 41.2279C74.9937 44.4908 76.79 48.0113 78.2188 51.3222C79.809 54.9972 80.5646 59.2321 79.6922 63.2094C78.8782 66.9325 76.9308 70.3877 75.2959 73.8704C75.1791 74.1177 75.2547 74.1876 75.5226 74.0799C75.6348 74.0341 75.7825 73.9128 75.9657 73.7159C79.6567 69.7294 82.306 65.1912 83.9133 60.1011C83.9298 60.0501 83.9582 60.0037 83.996 59.9657C84.0338 59.9278 84.08 59.8994 84.1307 59.8829C84.1814 59.8665 84.2352 59.8624 84.2876 59.8711C84.34 59.8797 84.3895 59.9009 84.432 59.9328L94.3546 67.3103C94.4041 67.3478 94.44 67.4001 94.4568 67.4591C94.4735 67.5181 94.4702 67.5805 94.4473 67.6366C92.9727 71.2659 91.2073 74.7623 89.1511 78.1259C88.7115 78.8472 88.1723 79.5913 87.5334 80.3584C85.9535 82.2646 84.3495 84.2807 82.4914 85.919C75.9382 91.7098 68.3614 94.6121 59.7921 95.9722C59.1223 96.0786 58.717 96.1164 58.1503 95.6768C54.07 92.494 50.3252 88.9633 46.9157 85.0844C45.456 83.4255 44.2264 81.4918 42.9625 79.6234C38.4219 72.919 34.5752 62.8144 37.9102 54.8633C37.9371 54.7993 37.9812 54.7439 38.0375 54.7033C38.0939 54.6628 38.1603 54.6385 38.2296 54.6332L38.3395 54.6263C38.3565 54.6254 38.3735 54.6284 38.3891 54.6351C38.4047 54.6418 38.4186 54.6521 38.4295 54.6651C38.4405 54.678 38.4484 54.6934 38.4524 54.7099C38.4564 54.7264 38.4566 54.7437 38.4528 54.7603C36.3852 63.388 40.6991 72.6546 46.3628 79.0017C48.0869 80.9354 49.526 82.7558 51.7448 84.528C53.4827 85.9156 55.4026 87.6707 57.3844 89.0514C59.9443 90.8351 62.3406 92.3624 64.5731 93.6332C65.7133 94.2835 65.8702 94.0991 65.0436 93.0802C62.6073 90.0806 60.8179 86.6094 59.6753 82.6665C59.1532 80.8599 58.9827 79.3097 59.1635 78.016C59.5379 75.3507 60.7194 73.7743 62.7458 71.5967C64.9303 69.2474 66.9269 66.7379 68.7358 64.0681C69.0083 63.6651 69.2739 63.7234 69.5326 64.2432C69.5553 64.2884 69.5681 64.3376 69.5704 64.3875C69.6941 66.1529 69.7261 67.9217 69.6666 69.6939C69.5292 73.7674 67.7089 77.3325 66.2285 80.9079C66.2094 80.9535 66.2076 81.0045 66.2234 81.0513C66.2392 81.0981 66.2716 81.1375 66.3144 81.1621C66.3419 81.1781 66.3842 81.1804 66.4415 81.169C66.4804 81.1621 66.5182 81.1438 66.5548 81.114C67.0059 80.7362 67.3757 80.2886 67.6642 79.7711C68.7083 77.8924 69.9929 76.1441 70.5802 74.0422C71.1091 72.1497 71.8063 70.2126 72.0777 68.3785C73.0634 61.657 72.0021 55.5193 67.7432 50.1132C64.5857 46.1085 60.8053 42.6452 56.4021 39.7235C54.6814 38.5832 53.5411 39.0675 51.8822 40.1941C47.4721 43.1959 43.2029 46.5206 39.7992 50.6009C31.9992 59.9431 36.8248 74.9146 42.8492 83.848C45.8464 88.2901 49.3646 92.2731 53.4037 95.797C53.5388 95.9138 53.627 96.0374 53.6682 96.1679C53.6748 96.1883 53.6764 96.2099 53.6729 96.231C53.6694 96.2521 53.6609 96.2721 53.6481 96.2892C53.6354 96.3064 53.6187 96.3202 53.5994 96.3296C53.5802 96.3389 53.559 96.3436 53.5377 96.3431C34.4309 95.8382 17.4639 81.4472 14.5514 62.44C14.1736 59.9568 14.4381 56.4467 13.8095 53.9943C13.1432 51.4081 11.8484 49.392 10.2238 47.2625C10.0452 47.0255 9.92498 46.6237 9.97306 46.3764C10.5203 43.6104 11.3068 40.9795 12.3326 38.4836C12.3526 38.4354 12.3834 38.3924 12.4225 38.3578C12.4616 38.3232 12.5081 38.298 12.5585 38.2841C12.6088 38.2702 12.6616 38.2679 12.713 38.2775C12.7643 38.2871 12.8128 38.3083 12.8547 38.3394L24.4293 46.974C24.5354 47.0532 24.6131 47.1645 24.6508 47.2913C24.6886 47.4182 24.6844 47.5538 24.6388 47.6781C23.5924 50.5082 22.8368 53.4162 22.372 56.402C22.3664 56.4375 22.3522 56.4712 22.3306 56.4999C22.309 56.5287 22.2808 56.5516 22.2484 56.5666C22.216 56.5816 22.1805 56.5882 22.1451 56.5859C22.1097 56.5835 22.0755 56.5723 22.0457 56.5531C21.6885 56.331 21.3405 56.1158 21.0016 55.9074C20.6719 55.7059 20.4108 55.6979 20.2185 55.8834C20.1132 55.9887 20.0307 56.1913 19.9712 56.4913C19.432 59.215 19.9163 62.8591 20.7577 65.4934C22.1682 69.9103 24.4637 73.8281 27.6441 77.2467C28.2784 77.929 28.9149 78.6079 29.5538 79.2834C30.9894 80.8015 32.7823 81.8902 34.455 83.1542C35.9765 84.3013 37.4637 84.9951 39.1398 85.7611C40.0019 86.156 40.809 86.6644 41.6539 87.1109C41.7272 87.1498 41.7993 87.1692 41.8703 87.1692C42.0031 87.1715 42.0752 87.1463 42.0867 87.0937C42.1103 86.9775 42.096 86.8571 42.0458 86.7505C41.9956 86.644 41.9123 86.557 41.8085 86.5029C40.0797 85.5825 38.4986 84.5624 37.0653 83.4427C35.0972 81.904 33.1258 79.6097 31.199 77.6554C30.4365 76.8837 29.7827 76.0594 29.2378 75.1825C26.3871 70.6144 24.3675 66.3452 23.739 60.9803C23.684 60.5029 23.818 60.108 24.2336 59.8091C25.4723 58.9139 26.7179 58.0002 27.9704 57.0683C28.0142 57.0357 28.0657 57.0149 28.1198 57.008C28.174 57.0012 28.229 57.0085 28.2795 57.0293C28.33 57.05 28.3743 57.0835 28.408 57.1265C28.4417 57.1694 28.4637 57.2204 28.4719 57.2744C28.7672 59.3787 29.263 61.4314 29.9591 63.4326C29.9733 63.4738 29.9999 63.5095 30.0349 63.5347C30.07 63.56 30.1119 63.5735 30.1548 63.5735C30.3174 63.578 30.4101 63.4865 30.433 63.2987C32.6003 46.4485 39.7546 32.1159 51.0235 19.5246C51.2731 19.243 51.2147 19.1422 50.8484 19.2224C50.8255 19.2269 50.7327 19.283 50.5702 19.3906C47.0233 21.6987 44.0455 24.2128 41.6367 26.933C40.2904 28.4511 39.3974 29.6052 37.7934 30.742C36.6943 31.5205 35.6193 32.3288 34.5683 33.1669C34.1046 33.5412 33.7131 33.5515 33.1739 33.4039C31.8824 33.0489 30.6735 32.8532 29.5469 32.8165C29.0386 32.8005 28.9676 32.9688 29.334 33.3214L31.563 35.4612C31.6477 35.5423 31.6977 35.6531 31.7022 35.7698C31.7067 35.8866 31.6654 36.0001 31.5871 36.0863C29.3362 38.6119 27.4564 41.3882 25.9474 44.4152C25.9195 44.4721 25.8792 44.5221 25.8296 44.5617C25.78 44.6012 25.7222 44.6294 25.6602 44.6441C25.5983 44.6589 25.5338 44.6599 25.4712 44.647C25.4087 44.6342 25.3497 44.6078 25.2983 44.5698L19.6999 40.462C19.5604 40.3595 19.4608 40.212 19.4182 40.0446C19.3756 39.8773 19.3926 39.7006 19.4663 39.5449C25.4494 26.9021 37.9445 17.457 52.1363 16.5949C68.2687 15.6126 82.2853 24.0686 90.47 37.7692C90.4952 37.8127 90.5307 37.8231 90.5765 37.8002L90.6692 37.7521C90.6761 37.7475 90.6784 37.7406 90.6761 37.7315ZM59.7886 24.206C59.6078 24.0961 59.475 24.1384 59.3902 24.333C59.3032 24.5345 59.3788 24.7601 59.6169 25.0097C61.7212 27.2284 63.7945 29.4758 65.837 31.7518C65.9446 31.8686 66.0465 31.9316 66.1427 31.9407C66.1844 31.9441 66.2263 31.9373 66.2647 31.9208C66.3032 31.9044 66.3371 31.8789 66.3635 31.8464C66.3898 31.8139 66.4079 31.7755 66.4161 31.7345C66.4243 31.6935 66.4224 31.6511 66.4106 31.611C65.3493 28.142 62.8764 26.0572 59.7886 24.206Z" fill="white"></path>
  <path d="M59.7886 24.206C62.8764 26.0572 65.3493 28.142 66.4106 31.611C66.4224 31.6511 66.4243 31.6935 66.4161 31.7345C66.4079 31.7755 66.3898 31.8139 66.3635 31.8464C66.3371 31.8789 66.3032 31.9044 66.2647 31.9208C66.2263 31.9373 66.1844 31.9441 66.1427 31.9407C66.0465 31.9316 65.9446 31.8686 65.837 31.7518C63.7945 29.4758 61.7212 27.2284 59.6169 25.0097C59.3788 24.7601 59.3032 24.5345 59.3902 24.333C59.475 24.1384 59.6078 24.0961 59.7886 24.206Z" fill="black"></path>
  <path d="M47.2283 55.4918C45.5659 54.5817 43.9723 52.3251 44.1406 50.3399C44.1462 50.2708 44.1699 50.2043 44.2091 50.1471C44.2483 50.0899 44.3018 50.044 44.3643 50.0138C44.4267 49.9836 44.496 49.9703 44.5652 49.975C44.6344 49.9798 44.7011 50.0026 44.7588 50.0411L51.7414 54.6572C51.808 54.7005 51.8633 54.7591 51.9025 54.8283C51.9417 54.8975 51.9638 54.9751 51.9668 55.0548C51.9698 55.1345 51.9537 55.2139 51.9199 55.2863C51.8861 55.3587 51.8354 55.4222 51.7723 55.4712C50.8449 56.1891 48.2415 56.0448 47.2283 55.4918Z" fill="#FCC500"></path>
  <path d="M65.4626 50.3365C65.2806 53.6474 62.9622 56.2955 59.3662 56.0105C58.6518 55.9555 58.0668 55.73 57.6111 55.3338C57.5604 55.29 57.5208 55.2347 57.4957 55.1725C57.4706 55.1103 57.4607 55.043 57.4667 54.9762C57.4727 54.9094 57.4946 54.8451 57.5305 54.7884C57.5663 54.7317 57.6152 54.6844 57.6729 54.6504C60.1069 53.2101 62.4436 51.7092 64.683 50.1476C64.8455 50.0331 65.0047 49.9816 65.1604 49.993C65.2457 49.9992 65.3252 50.0387 65.3818 50.1029C65.4383 50.1671 65.4673 50.251 65.4626 50.3365Z" fill="#FCC500"></path>
  <path d="M149.408 56.1654C150.354 56.896 151.321 57.6266 152.309 58.3573C153.341 59.0879 154.157 59.9689 154.759 61.0004C154.63 61.3872 154.609 61.7095 154.695 61.9674C154.78 62.1823 154.909 62.3972 155.081 62.6121C155.296 62.784 155.49 62.9774 155.662 63.1923C155.876 63.3642 156.027 63.6006 156.113 63.9014C156.242 64.4601 156.199 65.1048 155.984 65.8354C155.769 66.5231 155.619 67.2107 155.533 67.8984C155.447 68.2422 155.382 68.6075 155.339 68.9943C155.339 69.3381 155.296 69.682 155.21 70.0258C155.038 70.9283 154.909 71.7879 154.823 72.6044C154.737 73.421 154.845 74.2806 155.146 75.1831C155.361 75.8708 155.726 76.6229 156.242 77.4395C156.8 78.299 157.359 78.8577 157.918 79.1156C158.133 79.2445 158.305 79.2875 158.434 79.2445C158.563 79.2445 158.734 79.2875 158.949 79.3735C159.207 79.5024 159.401 79.6958 159.53 79.9537C159.701 80.2115 159.981 80.4049 160.368 80.5339C160.969 80.1471 161.635 80.0396 162.366 80.2115C163.097 80.4264 163.827 80.5124 164.558 80.4694C164.773 80.4694 164.966 80.4049 165.138 80.276C165.31 80.1901 165.482 80.1471 165.654 80.1471C166.642 80.0611 167.652 79.9752 168.684 79.8892C169.758 79.8033 170.79 79.6099 171.778 79.309C172.251 79.1801 172.745 78.9652 173.261 78.6643C173.777 78.3635 174.292 78.0626 174.808 77.7618C175.496 77.332 176.183 76.8808 176.871 76.408C177.602 75.9352 178.418 75.8493 179.321 76.1501C179.364 76.9667 179.235 77.6114 178.934 78.0841C178.633 78.5999 178.246 79.0296 177.774 79.3735C177.301 79.7603 176.807 80.1256 176.291 80.4694C175.775 80.8132 175.345 81.2 175.002 81.6298C174.228 81.8447 173.605 82.1241 173.132 82.4679C172.659 82.8547 172.122 83.2415 171.52 83.6283C171.177 83.8002 170.833 83.9291 170.489 84.0151C170.188 84.101 169.887 84.2515 169.586 84.4664C169.243 84.6383 168.942 84.8746 168.684 85.1755C168.426 85.4763 168.147 85.7342 167.846 85.9491C167.502 86.164 167.094 86.2929 166.621 86.3359C166.191 86.4219 165.783 86.5078 165.396 86.5938C164.236 86.9376 163.011 87.2169 161.721 87.4318C160.432 87.6897 159.121 87.8401 157.789 87.8831C156.5 87.9691 155.21 87.9046 153.921 87.6897C152.632 87.5178 151.407 87.174 150.246 86.6582C149.602 86.4004 149.064 86.0565 148.635 85.6268C148.248 85.24 147.818 84.8102 147.345 84.3374C146.787 83.8647 146.185 83.306 145.54 82.6613C144.939 82.0596 144.466 81.4579 144.122 80.8562C143.993 80.5124 143.864 80.1041 143.735 79.6313C143.649 79.1586 143.542 78.6858 143.413 78.2131C143.284 77.7403 143.112 77.2031 142.897 76.6014C142.725 76.0427 142.639 75.441 142.639 74.7963C142.596 73.7219 142.682 72.6044 142.897 71.444C143.155 70.2407 143.37 69.0803 143.542 67.9628C143.757 66.8024 143.864 65.7065 143.864 64.675C143.864 63.6006 143.649 62.6551 143.219 61.8385C143.09 61.5806 142.897 61.3442 142.639 61.1293C142.424 60.8715 142.209 60.5921 141.995 60.2913C141.522 59.6896 141.006 59.1524 140.447 58.6796C139.889 58.1639 139.115 57.8415 138.127 57.7126C137.439 57.6266 136.665 57.6266 135.806 57.7126C134.946 57.7556 134.323 57.9275 133.936 58.2283C133.334 58.5722 132.991 59.1309 132.905 59.9045C132.862 60.6351 132.754 61.4087 132.582 62.2253C132.367 63.2138 132.067 64.1163 131.68 64.9329C131.336 65.7495 131.229 66.6735 131.357 67.705C131.443 68.1347 131.572 68.6505 131.744 69.2522C131.916 69.8539 132.088 70.3266 132.26 70.6704C132.389 70.9713 132.604 71.3366 132.905 71.7664C133.206 72.1962 133.249 72.583 133.034 72.9268C132.776 73.2706 132.346 73.3995 131.744 73.3136C131.143 73.2276 130.541 73.1632 129.939 73.1202C129.209 73.0772 128.585 73.0557 128.07 73.0557C127.597 73.0127 127.146 73.0127 126.716 73.0557C126.286 73.0557 125.835 73.0987 125.362 73.1847C124.889 73.2276 124.309 73.2921 123.621 73.3781C123.278 73.421 122.998 73.464 122.783 73.507C122.611 73.55 122.44 73.5929 122.268 73.6359C122.139 73.7219 121.988 73.7863 121.816 73.8293C121.687 73.9153 121.473 74.0012 121.172 74.0872C120.914 74.1731 120.677 74.2806 120.463 74.4095C120.248 74.5814 120.033 74.7104 119.818 74.7963C119.087 75.0112 118.292 75.1401 117.433 75.1831C116.573 75.2691 115.757 75.3121 114.983 75.3121C114.252 75.355 113.522 75.3335 112.791 75.2476C112.017 75.2046 111.33 75.0757 110.728 74.8608C110.814 74.3451 111.05 74.0012 111.437 73.8293C111.824 73.6574 112.146 73.421 112.404 73.1202C113.522 72.9053 114.661 72.4325 115.821 71.7019C116.938 70.9283 117.669 69.9828 118.013 68.8654C118.142 68.4786 118.228 68.0703 118.271 67.6405C118.314 67.1677 118.378 66.7165 118.464 66.2867C118.679 65.1693 118.894 64.0304 119.109 62.8699C119.324 61.7095 119.603 60.5491 119.947 59.3887C120.033 59.1738 120.14 58.9804 120.269 58.8085C120.398 58.6366 120.506 58.4432 120.592 58.2283C120.849 57.4977 121 56.7456 121.043 55.972C121.129 55.1554 121.279 54.3818 121.494 53.6512C121.709 53.0925 121.924 52.5767 122.139 52.104C122.354 51.5882 122.526 51.0725 122.654 50.5568C122.783 49.9981 122.891 49.4608 122.977 48.9451C123.106 48.4294 123.321 47.9566 123.621 47.5268C123.707 46.7962 123.793 46.1086 123.879 45.4639C123.965 44.8192 123.987 44.0671 123.944 43.2075C124.417 42.6488 124.846 42.0686 125.233 41.4669C125.663 40.8223 125.942 40.0702 126.071 39.2106C126.157 38.7378 126.136 38.2866 126.007 37.8568C125.921 37.427 125.878 36.9543 125.878 36.4385C125.921 35.3211 126.007 34.3326 126.136 33.473C126.308 32.5705 126.437 31.5605 126.522 30.4431C126.179 29.6695 125.641 29.1538 124.911 28.8959C124.223 28.5951 123.471 28.1868 122.654 27.671C122.526 27.6281 122.354 27.5421 122.139 27.4132C121.924 27.2842 121.687 27.1553 121.43 27.0264C121.215 26.8544 121.021 26.6825 120.849 26.5106C120.72 26.3387 120.656 26.1883 120.656 26.0594C120.699 25.7585 120.871 25.5221 121.172 25.3502C121.516 25.1353 121.881 25.0064 122.268 24.9634C122.697 24.8775 123.127 24.856 123.557 24.899C123.987 24.899 124.352 24.9204 124.653 24.9634C125.727 25.1783 126.759 25.3932 127.747 25.6081C128.736 25.823 129.746 26.0164 130.777 26.1883C131.852 26.3172 132.969 26.4032 134.13 26.4462C135.333 26.4891 136.687 26.4462 138.191 26.3172C138.75 26.2742 139.222 26.2098 139.609 26.1238C140.039 25.9949 140.512 25.9089 141.028 25.866C141.758 25.823 142.467 25.7585 143.155 25.6726C143.886 25.5436 144.616 25.5221 145.347 25.6081C146.679 25.737 147.861 25.737 148.892 25.6081C149.924 25.4362 151.02 25.4147 152.18 25.5436C152.739 25.6296 153.255 25.8015 153.728 26.0594C154.243 26.2742 154.737 26.5106 155.21 26.7685C155.726 27.0264 156.22 27.2627 156.693 27.4776C157.209 27.6495 157.724 27.757 158.24 27.8C159.014 28.2727 159.744 28.8744 160.432 29.605C161.163 30.3357 161.829 31.1522 162.431 32.0548C162.903 32.7854 163.355 33.6235 163.784 34.569C164.214 35.5145 164.536 36.3096 164.751 36.9543C165.052 37.7279 165.181 38.5015 165.138 39.2751C165.095 40.0057 164.988 40.7148 164.816 41.4025C164.472 42.6488 164.042 43.7663 163.526 44.7548C163.011 45.7432 162.431 46.6888 161.786 47.5913C161.184 48.4509 160.54 49.3319 159.852 50.2344C159.207 51.094 158.605 51.9965 158.047 52.942C157.703 53.071 157.359 53.1569 157.015 53.1999C156.714 53.1999 156.414 53.2644 156.113 53.3933C155.64 53.6082 155.232 53.9305 154.888 54.3603C154.544 54.7471 154.093 55.0265 153.534 55.1984C153.319 55.2843 153.083 55.3058 152.825 55.2629C152.61 55.2199 152.395 55.2199 152.18 55.2629C151.708 55.3918 151.256 55.5637 150.826 55.7786C150.44 55.9505 149.967 56.0794 149.408 56.1654ZM145.605 50.6857C146.292 49.8261 147.044 49.0311 147.861 48.3004C148.678 47.5268 149.322 46.6458 149.795 45.6573C150.01 45.1845 150.182 44.6258 150.311 43.9812C150.483 43.2935 150.633 42.6488 150.762 42.0471C150.977 40.7578 150.998 39.6189 150.826 38.6304C150.655 37.6419 150.354 36.7609 149.924 35.9873C149.494 35.2137 148.957 34.5475 148.312 33.9888C147.668 33.4301 146.958 32.9358 146.185 32.506C145.583 32.1622 144.96 31.7969 144.315 31.4101C143.714 30.9803 142.962 30.8944 142.059 31.1522C141.414 31.539 140.877 32.1622 140.447 33.0218C140.061 33.8813 139.695 34.6764 139.351 35.4071C139.222 35.7079 139.072 36.0087 138.9 36.3096C138.771 36.6104 138.664 36.8683 138.578 37.0832C138.535 37.384 138.535 37.7064 138.578 38.0502C138.621 38.351 138.599 38.6734 138.513 39.0172C138.427 39.318 138.212 39.5329 137.869 39.6619C137.525 39.7478 137.331 39.9412 137.288 40.2421C137.288 40.5429 137.396 40.8223 137.611 41.0801C137.869 41.295 137.998 41.5744 137.998 41.9182C137.955 42.4339 137.761 43.0141 137.417 43.6588C137.117 44.3035 136.923 44.9696 136.837 45.6573C136.751 46.302 136.601 46.9251 136.386 47.5268C136.214 48.1285 136.021 48.7302 135.806 49.3319C135.634 49.9336 135.462 50.5568 135.29 51.2014C135.161 51.8031 135.118 52.4263 135.161 53.071C136.021 53.2429 136.945 53.3074 137.933 53.2644C138.922 53.2214 139.889 53.0925 140.834 52.8776C141.78 52.6627 142.661 52.3833 143.477 52.0395C144.337 51.6527 145.046 51.2014 145.605 50.6857Z" fill="white"></path>
  <path d="M197.792 43.2075C196.632 43.7663 195.471 44.0456 194.311 44.0456C193.15 44.0456 191.861 44.0026 190.443 43.9167C190.056 43.9167 189.626 43.9382 189.153 43.9812C188.724 44.0241 188.315 44.0671 187.928 44.1101C185.909 44.325 184.211 45.0986 182.836 46.4309C181.46 47.7202 180.45 49.3534 179.806 51.3304C179.591 52.061 179.419 52.7272 179.29 53.3289C179.161 53.9305 179.44 54.2744 180.128 54.3603C180.558 54.4463 180.988 54.4463 181.417 54.3603C181.847 54.2744 182.277 54.1669 182.707 54.038C183.179 53.8661 183.631 53.7157 184.06 53.5867C184.49 53.4578 184.92 53.3933 185.35 53.3933C185.522 53.3933 185.672 53.4363 185.801 53.5223C185.973 53.6082 186.145 53.6512 186.317 53.6512C187.047 53.7371 187.821 53.6942 188.638 53.5223C189.454 53.3074 190.206 53.2859 190.894 53.4578C191.023 53.5008 191.13 53.5867 191.216 53.7157C191.345 53.8016 191.517 53.8876 191.732 53.9735C192.291 54.1884 192.957 54.3388 193.73 54.4248C194.504 54.4678 195.127 54.5967 195.6 54.8116C195.815 54.8975 196.03 55.0695 196.245 55.3273C196.46 55.5422 196.567 55.6926 196.567 55.7786C196.567 56.2513 196.288 56.5522 195.729 56.6811C195.17 56.8101 194.697 56.896 194.311 56.939C193.967 56.982 193.623 56.982 193.279 56.939C192.935 56.896 192.592 56.9175 192.248 57.0035C191.646 57.0894 191.066 57.2184 190.507 57.3903C189.948 57.5192 189.347 57.6911 188.702 57.906C187.971 58.1639 187.284 58.4862 186.639 58.873C185.994 59.2168 185.285 59.4317 184.512 59.5177C183.953 59.6036 183.416 59.6036 182.9 59.5177C182.384 59.4317 181.826 59.4317 181.224 59.5177C181.009 59.5606 180.794 59.6251 180.579 59.7111C180.407 59.797 180.214 59.8615 179.999 59.9045C179.612 59.9904 179.311 60.0549 179.097 60.0979C178.925 60.0979 178.774 60.1409 178.645 60.2268C178.559 60.3128 178.452 60.4417 178.323 60.6136C178.237 60.7855 178.087 61.0434 177.872 61.3872C177.528 62.1608 177.313 62.9989 177.227 63.9014C177.141 64.761 177.055 65.685 176.969 66.6735C177.442 67.1463 177.893 67.5331 178.323 67.8339C178.753 68.0918 179.419 68.2207 180.321 68.2207C180.794 68.2207 181.159 68.1777 181.417 68.0918C181.718 67.9628 182.105 67.8769 182.578 67.8339C183.05 67.8339 183.523 67.8769 183.996 67.9628C184.469 68.0058 185.006 68.0058 185.608 67.9628C186.854 67.8769 187.907 67.7265 188.767 67.5116C189.626 67.2537 190.679 67.1677 191.925 67.2537C192.183 67.2537 192.635 67.2752 193.279 67.3182C193.967 67.3611 194.655 67.4256 195.342 67.5116C196.03 67.5545 196.632 67.6405 197.147 67.7694C197.706 67.8984 197.985 68.0703 197.985 68.2852C197.985 68.543 197.813 68.8224 197.47 69.1232C197.169 69.3811 196.803 69.639 196.374 69.8968C195.987 70.1117 195.579 70.3051 195.149 70.477C194.762 70.606 194.504 70.6919 194.375 70.7349C193.645 70.9498 192.935 71.0143 192.248 70.9283C191.56 70.7994 190.808 70.7779 189.991 70.8638C189.39 70.9498 188.853 71.0787 188.38 71.2506C187.907 71.4226 187.434 71.616 186.961 71.8308C186.489 72.0028 185.994 72.1962 185.479 72.411C185.006 72.583 184.447 72.6904 183.803 72.7334C182.943 72.8193 182.212 72.9268 181.611 73.0557C181.009 73.1417 180.3 73.2706 179.483 73.4425C179.139 73.5285 178.817 73.6144 178.516 73.7004C178.215 73.8293 177.893 73.9368 177.549 74.0227C176.303 74.2806 174.949 74.3236 173.488 74.1517C172.07 74.0227 170.522 74.0442 168.846 74.2161C167.772 74.3451 166.805 74.4955 165.945 74.6674C165.129 74.8823 164.291 74.9467 163.431 74.8608C163.13 74.8178 162.851 74.7748 162.593 74.7319C162.292 74.7319 162.034 74.6244 161.819 74.4095C161.905 74.0657 162.099 73.7649 162.4 73.507C162.7 73.2491 163.001 73.0127 163.302 72.7978C163.603 72.54 163.882 72.2821 164.14 72.0242C164.441 71.7234 164.72 71.444 164.978 71.1862C165.236 70.8424 165.451 70.4341 165.623 69.9613C165.795 69.4456 165.945 68.9298 166.074 68.4141C166.246 67.8984 166.418 67.4256 166.59 66.9958C166.805 66.5231 167.063 66.1148 167.364 65.771C167.02 64.9974 167.02 64.1163 167.364 63.1278C167.75 62.1393 168.094 61.1079 168.395 60.0334C168.481 59.7755 168.524 59.5177 168.524 59.2598C168.524 59.0019 168.567 58.7656 168.653 58.5507C168.739 58.1209 168.932 57.7556 169.233 57.4547C169.534 57.1109 169.727 56.7671 169.813 56.4233C169.856 56.2084 169.856 55.9935 169.813 55.7786C169.813 55.5637 169.835 55.3488 169.878 55.1339C169.964 54.4893 170.114 53.8876 170.329 53.3289C170.587 52.7272 170.759 52.1899 170.845 51.7172C170.931 51.3734 170.931 51.0295 170.845 50.6857C170.802 50.2989 170.802 49.9336 170.845 49.5898C170.931 48.7302 171.103 47.9136 171.36 47.14C171.661 46.3664 171.833 45.6788 171.876 45.0771C171.919 44.6043 171.855 44.0886 171.683 43.5299C171.511 42.9712 171.339 42.5414 171.167 42.2405C171.038 42.0257 170.845 41.8108 170.587 41.5959C170.329 41.338 170.071 41.1016 169.813 40.8867C169.555 40.6719 169.319 40.4785 169.104 40.3065C168.932 40.0916 168.846 39.8982 168.846 39.7263C168.889 39.2536 169.083 39.0172 169.426 39.0172C169.77 38.9742 170.093 38.8238 170.393 38.5659C171.941 38.6089 173.402 38.7808 174.777 39.0817C176.196 39.3825 177.657 39.5759 179.161 39.6619C179.72 39.7478 180.3 39.7478 180.902 39.6619C181.503 39.5329 182.083 39.447 182.642 39.404C183.545 39.361 184.555 39.49 185.672 39.7908C186.833 40.0916 187.971 40.1991 189.089 40.1131C190.593 40.0272 192.011 39.9842 193.344 39.9842C194.676 39.9842 196.073 39.9412 197.534 39.8553C197.792 40.0702 198.179 40.1776 198.694 40.1776C199.21 40.1346 199.726 40.0916 200.242 40.0487C200.8 39.9627 201.295 39.9412 201.724 39.9842C202.197 40.0272 202.519 40.2206 202.691 40.5644C202.949 41.1661 202.906 41.6818 202.562 42.1116C202.219 42.5414 201.746 42.8207 201.144 42.9497C200.972 42.9497 200.736 42.9712 200.435 43.0141C200.134 43.0571 199.812 43.1001 199.468 43.1431C199.124 43.1861 198.78 43.2075 198.437 43.2075C198.136 43.2075 197.921 43.2075 197.792 43.2075Z" fill="white"></path>
  <path d="M213.362 43.9167C214.179 43.358 214.888 42.7133 215.489 41.9827C216.091 41.2521 216.671 40.5214 217.23 39.7908C217.574 39.8338 217.875 39.7693 218.133 39.5974C218.39 39.4255 218.67 39.2966 218.971 39.2106C219.572 39.0387 220.174 39.0602 220.776 39.2751C221.42 39.447 222.043 39.5114 222.645 39.4685C223.376 39.3825 224.063 39.1891 224.708 38.8883C225.396 38.5874 226.191 38.437 227.093 38.437C227.394 38.437 227.674 38.5444 227.931 38.7593C228.189 38.9312 228.447 39.0387 228.705 39.0817C229.049 39.1676 229.35 39.1246 229.608 38.9527C229.908 38.7808 230.231 38.6949 230.575 38.6949C231.176 38.6949 231.628 38.8883 231.928 39.2751C232.272 39.6619 232.659 40.0487 233.089 40.4355C233.304 41.424 233.325 42.391 233.153 43.3365C232.981 44.282 232.938 45.249 233.024 46.2375C233.11 46.8822 233.196 47.5053 233.282 48.107C233.411 48.7087 233.476 49.3319 233.476 49.9766C233.519 50.5353 233.476 51.137 233.347 51.7816C233.261 52.3833 233.239 52.985 233.282 53.5867C233.325 53.8016 233.39 54.0165 233.476 54.2314C233.562 54.4463 233.583 54.6612 233.54 54.8761C233.454 55.3488 233.261 55.7141 232.96 55.972C232.659 56.2299 232.487 56.5737 232.444 57.0035C232.358 57.6481 232.487 58.2498 232.831 58.8085C233.218 59.3672 233.454 59.9475 233.54 60.5491C233.583 60.807 233.562 61.0864 233.476 61.3872C233.39 61.6881 233.347 61.9674 233.347 62.2253C233.261 63.1708 233.261 64.2238 233.347 65.3842C233.476 66.5446 233.562 67.619 233.605 68.6075C233.605 68.9513 233.626 69.2951 233.669 69.639C233.755 69.9828 233.755 70.2622 233.669 70.477C233.626 70.6919 233.519 70.8638 233.347 70.9928C233.218 71.1217 233.11 71.2721 233.024 71.444C232.981 71.6589 232.981 71.9598 233.024 72.3466C233.11 72.7334 233.153 73.0987 233.153 73.4425C233.153 73.7434 233.132 74.0227 233.089 74.2806C233.046 74.5814 233.024 74.8393 233.024 75.0542C233.067 75.1831 233.11 75.3121 233.153 75.441C233.239 75.6129 233.261 75.7633 233.218 75.8923C233.132 76.2791 232.831 76.6874 232.315 77.1171C231.842 77.5899 231.348 77.8048 230.832 77.7618C230.575 77.7188 230.188 77.5039 229.672 77.1171C229.199 76.7733 228.855 76.494 228.641 76.2791C228.254 75.8063 228.017 75.2046 227.931 74.474C227.846 73.7434 227.652 73.0772 227.351 72.4755C227.222 72.2606 227.029 72.0672 226.771 71.8953C226.556 71.6804 226.363 71.444 226.191 71.1862C225.933 70.7134 225.761 70.2407 225.675 69.7679C225.589 69.2522 225.525 68.7579 225.482 68.2852C225.482 67.7694 225.46 67.2752 225.417 66.8024C225.374 66.2867 225.267 65.771 225.095 65.2552C225.009 65.0833 224.88 64.9329 224.708 64.804C224.536 64.675 224.386 64.5031 224.257 64.2882C223.999 63.8584 223.827 63.4931 223.741 63.1923C223.655 62.8914 223.376 62.6551 222.903 62.4831C221.399 62.4831 219.873 62.4402 218.326 62.3542C216.822 62.2683 215.339 62.3112 213.878 62.4831C213.534 62.5261 213.233 62.6121 212.975 62.741C212.717 62.827 212.416 62.8914 212.073 62.9344C211.901 62.9344 211.729 62.9129 211.557 62.8699C211.385 62.827 211.235 62.8055 211.106 62.8055C210.504 62.8914 209.924 63.1708 209.365 63.6436C208.806 64.0733 208.377 64.5031 208.076 64.9329C207.904 65.1908 207.796 65.5131 207.753 65.8999C207.753 66.2437 207.689 66.5875 207.56 66.9314C207.431 67.2752 207.216 67.5975 206.915 67.8984C206.614 68.1562 206.507 68.5001 206.593 68.9298C206.12 69.2737 205.712 69.7034 205.368 70.2192C205.067 70.7349 204.766 71.2721 204.466 71.8308C204.165 72.3466 203.821 72.8408 203.434 73.3136C203.09 73.7863 202.66 74.1302 202.145 74.3451C201.93 74.431 201.715 74.5385 201.5 74.6674C201.328 74.7963 201.135 74.8608 200.92 74.8608C200.705 74.8178 200.576 74.7533 200.533 74.6674C200.533 74.5814 200.404 74.4525 200.146 74.2806C199.888 74.1087 199.588 73.9153 199.244 73.7004C198.857 73.4855 198.492 73.2491 198.148 72.9913C197.804 72.7334 197.503 72.4755 197.245 72.2176C196.944 71.9168 196.729 71.6374 196.601 71.3796C196.257 70.649 196.192 70.1332 196.407 69.8324C196.622 69.4885 196.901 69.0803 197.245 68.6075C197.718 67.9199 198.255 67.1463 198.857 66.2867C199.459 65.4271 199.996 64.6106 200.469 63.837C200.726 63.4072 200.941 62.9989 201.113 62.6121C201.328 62.2253 201.586 61.86 201.887 61.5161C202.231 61.0434 202.66 60.6566 203.176 60.3557C203.735 60.0549 204.122 59.6681 204.337 59.1953C204.423 58.9804 204.466 58.7656 204.466 58.5507C204.466 58.2928 204.509 58.0349 204.594 57.7771C204.938 56.9175 205.476 56.1439 206.206 55.4563C206.937 54.7686 207.495 53.995 207.882 53.1354C207.968 52.9206 208.011 52.7272 208.011 52.5552C208.054 52.3404 208.119 52.1255 208.205 51.9106C208.892 50.3204 209.73 48.9021 210.719 47.6558C211.75 46.4094 212.631 45.163 213.362 43.9167ZM222.387 43.7233C221.872 44.1101 221.42 44.5614 221.034 45.0771C220.69 45.5498 220.217 45.9152 219.615 46.173C219.443 46.5598 219.228 46.9251 218.971 47.269C218.756 47.6128 218.455 47.8921 218.068 48.107C217.939 48.7947 217.681 49.3964 217.294 49.9121C216.908 50.3849 216.542 50.8576 216.198 51.3304C216.027 51.5023 215.876 51.6957 215.747 51.9106C215.618 52.0825 215.468 52.2759 215.296 52.4908C215.081 52.7057 214.866 52.8776 214.651 53.0065C214.436 53.0925 214.243 53.2214 214.071 53.3933C213.813 53.7371 213.534 54.2099 213.233 54.8116C212.932 55.4133 212.653 55.9075 212.395 56.2943C212.18 56.5092 211.965 56.7241 211.75 56.939C211.535 57.1539 211.471 57.4332 211.557 57.7771C211.686 58.1209 211.944 58.3573 212.33 58.4862C212.717 58.5722 213.147 58.6366 213.62 58.6796C214.136 58.6796 214.63 58.6581 215.103 58.6151C215.575 58.5722 215.962 58.5507 216.263 58.5507C216.865 58.5507 217.466 58.5722 218.068 58.6151C218.713 58.6151 219.314 58.5936 219.873 58.5507C220.475 58.5077 220.991 58.4002 221.42 58.2283C221.893 58.0564 222.258 57.7986 222.516 57.4547C222.946 56.0794 223.053 54.7041 222.839 53.3289C222.624 51.9106 222.43 50.5138 222.258 49.1385C222.172 48.7517 222.108 48.3219 222.065 47.8492C222.022 47.3764 222.022 46.9466 222.065 46.5598C222.108 46.13 222.237 45.7218 222.452 45.335C222.71 44.9052 222.753 44.4109 222.581 43.8522L222.387 43.7233Z" fill="white"></path>
  <path d="M249.561 63.4502C248.96 64.6965 248.465 66.0933 248.079 67.6405C247.735 69.1877 247.391 70.5845 247.047 71.8308C246.875 72.4325 246.531 72.8838 246.016 73.1847C245.543 73.4425 245.006 73.6144 244.404 73.7004C243.802 73.8293 243.201 73.9153 242.599 73.9583C241.997 74.0012 241.503 74.0872 241.116 74.2161C240.729 74.3451 240.3 74.5385 239.827 74.7963C239.397 75.0972 238.967 75.355 238.538 75.5699C238.108 75.8278 237.699 76.0212 237.313 76.1501C236.969 76.2791 236.711 76.2576 236.539 76.0857C236.367 75.9137 236.346 75.5055 236.475 74.8608C236.604 74.2591 236.818 73.55 237.119 72.7334C237.42 71.9168 237.764 71.0787 238.151 70.2192C238.581 69.3166 238.989 68.5001 239.376 67.7694C239.633 67.2537 239.805 66.5661 239.891 65.7065C239.977 64.804 240.042 64.0518 240.085 63.4502C240.085 63.2353 240.042 63.0419 239.956 62.8699C239.87 62.6551 239.848 62.4402 239.891 62.2253C239.934 62.0104 240.063 61.731 240.278 61.3872C240.536 61.0434 240.751 60.6996 240.923 60.3557C241.224 59.5821 241.396 58.7011 241.439 57.7126C241.525 56.6811 241.696 55.8216 241.954 55.1339C242.04 54.919 242.148 54.7256 242.277 54.5537C242.449 54.3388 242.577 54.1239 242.663 53.9091C242.749 53.6512 242.771 53.3289 242.728 52.942C242.685 52.5552 242.663 52.1899 242.663 51.8461C242.663 51.2874 242.771 50.6642 242.986 49.9766C243.244 49.2459 243.48 48.5583 243.695 47.9136C243.91 47.226 244.06 46.5813 244.146 45.9796C244.275 45.335 244.254 44.7762 244.082 44.3035C243.953 43.6588 243.888 43.229 243.888 43.0141C243.888 42.7993 243.845 42.6488 243.759 42.5629C243.544 42.348 243.459 42.2191 243.502 42.1761C243.587 42.0901 243.502 41.9612 243.244 41.7893C243.029 41.5744 242.814 41.4025 242.599 41.2735C242.427 41.1016 242.191 40.9082 241.89 40.6933C241.632 40.5214 241.353 40.371 241.052 40.2421C240.794 40.0702 240.643 39.7908 240.601 39.404C240.987 39.0602 241.31 38.8238 241.568 38.6949C241.868 38.5659 242.148 38.5015 242.406 38.5015C242.663 38.4585 242.943 38.48 243.244 38.5659C243.544 38.6089 243.91 38.6519 244.34 38.6949C245.07 38.7808 245.715 38.8023 246.274 38.7593C246.875 38.7164 247.606 38.6949 248.465 38.6949C249.024 38.6949 249.647 38.7593 250.335 38.8883C251.066 38.9742 251.71 39.0602 252.269 39.1461C252.828 39.2321 253.386 39.2536 253.945 39.2106C254.547 39.1246 255.084 39.1246 255.557 39.2106C255.944 39.2966 256.287 39.404 256.588 39.5329C256.889 39.6189 257.254 39.6619 257.684 39.6619C258.888 39.6619 260.027 39.5329 261.101 39.2751C262.218 39.0172 263.271 38.9742 264.26 39.1461C264.604 39.2321 264.969 39.3395 265.356 39.4685C265.786 39.5974 266.194 39.7263 266.581 39.8553C266.967 39.9842 267.247 40.0916 267.419 40.1776C267.634 40.2206 267.913 40.3065 268.257 40.4355C268.601 40.5644 268.944 40.7793 269.288 41.0801C269.675 41.338 270.062 41.6389 270.449 41.9827C271.05 42.4125 271.652 42.8637 272.254 43.3365C272.898 43.8092 273.328 44.3894 273.543 45.0771C273.629 45.292 273.736 45.6358 273.865 46.1086C274.037 46.5813 274.123 46.9251 274.123 47.14C274.166 47.6987 274.016 48.2575 273.672 48.8162C274.016 49.3319 274.145 49.9121 274.059 50.5568C273.973 51.1585 273.758 51.7816 273.414 52.4263C273.113 53.028 272.727 53.6082 272.254 54.1669C271.781 54.7256 271.351 55.1984 270.964 55.5852C270.32 56.1869 269.611 56.7241 268.837 57.1969C268.106 57.6266 267.311 58.0564 266.452 58.4862C265.979 58.7011 265.528 58.9804 265.098 59.3243C264.668 59.6251 264.26 59.8615 263.873 60.0334C263.658 60.1194 263.529 60.1409 263.486 60.0979C263.486 60.0549 263.357 60.0549 263.099 60.0979C262.24 60.2698 261.402 60.5706 260.585 61.0004C259.769 61.4302 258.909 61.7525 258.007 61.9674C257.792 62.0534 257.555 62.0963 257.297 62.0963C257.04 62.0534 256.803 62.0534 256.588 62.0963C255.944 62.1823 255.299 62.3542 254.654 62.6121C254.053 62.827 253.429 62.9774 252.785 63.0633C252.183 63.1493 251.624 63.1923 251.109 63.1923C250.636 63.1923 250.12 63.2782 249.561 63.4502ZM252.72 49.3319C252.548 49.9336 252.398 50.5353 252.269 51.137C252.183 51.7387 252.076 52.3404 251.947 52.942C251.861 53.3289 251.71 53.7801 251.495 54.2959C251.323 54.8116 251.173 55.3273 251.044 55.8431C250.915 56.3158 250.872 56.7456 250.915 57.1324C250.958 57.5192 251.173 57.7771 251.56 57.906C251.775 57.949 251.968 57.9275 252.14 57.8415C252.355 57.7556 252.591 57.6911 252.849 57.6481C253.021 57.6481 253.193 57.6911 253.365 57.7771C253.58 57.82 253.795 57.82 254.01 57.7771C255.6 57.6481 257.061 57.3688 258.393 56.939C259.769 56.5092 260.628 55.6282 260.972 54.2959C261.144 54.2099 261.294 54.1454 261.423 54.1025C261.595 54.0165 261.789 53.9305 262.004 53.8446C262.648 53.1569 263.185 52.2114 263.615 51.008C264.088 49.8047 264.367 48.7087 264.453 47.7202C264.453 47.3764 264.303 47.0111 264.002 46.6243C263.744 46.1945 263.572 45.8722 263.486 45.6573C263.4 45.4854 263.207 45.3135 262.906 45.1416C262.605 44.9267 262.261 44.7333 261.875 44.5614C261.488 44.3465 261.079 44.1746 260.65 44.0456C260.263 43.9167 259.962 43.8307 259.747 43.7878C259.274 43.7018 258.888 43.7233 258.587 43.8522C258.286 43.9382 257.921 44.0026 257.491 44.0456C256.889 44.0886 256.33 44.0886 255.815 44.0456C255.299 44.0026 254.848 44.1746 254.461 44.5614C254.332 45.335 254.053 46.13 253.623 46.9466C253.236 47.7202 252.935 48.5153 252.72 49.3319Z" fill="white"></path>
  <path d="M305.423 43.2075C304.263 43.7663 303.102 44.0456 301.942 44.0456C300.782 44.0456 299.492 44.0026 298.074 43.9167C297.687 43.9167 297.257 43.9382 296.785 43.9812C296.355 44.0241 295.947 44.0671 295.56 44.1101C293.54 44.325 291.842 45.0986 290.467 46.4309C289.092 47.7202 288.082 49.3534 287.437 51.3304C287.222 52.061 287.05 52.7272 286.921 53.3289C286.792 53.9305 287.072 54.2744 287.759 54.3603C288.189 54.4463 288.619 54.4463 289.049 54.3603C289.478 54.2744 289.908 54.1669 290.338 54.038C290.811 53.8661 291.262 53.7157 291.692 53.5867C292.122 53.4578 292.551 53.3933 292.981 53.3933C293.153 53.3933 293.303 53.4363 293.432 53.5223C293.604 53.6082 293.776 53.6512 293.948 53.6512C294.679 53.7371 295.452 53.6942 296.269 53.5223C297.086 53.3074 297.838 53.2859 298.525 53.4578C298.654 53.5008 298.762 53.5867 298.848 53.7157C298.977 53.8016 299.148 53.8876 299.363 53.9735C299.922 54.1884 300.588 54.3388 301.362 54.4248C302.135 54.4678 302.759 54.5967 303.231 54.8116C303.446 54.8975 303.661 55.0695 303.876 55.3273C304.091 55.5422 304.198 55.6926 304.198 55.7786C304.198 56.2513 303.919 56.5522 303.36 56.6811C302.802 56.8101 302.329 56.896 301.942 56.939C301.598 56.982 301.254 56.982 300.911 56.939C300.567 56.896 300.223 56.9175 299.879 57.0035C299.277 57.0894 298.697 57.2184 298.138 57.3903C297.58 57.5192 296.978 57.6911 296.333 57.906C295.603 58.1639 294.915 58.4862 294.27 58.873C293.626 59.2168 292.917 59.4317 292.143 59.5177C291.584 59.6036 291.047 59.6036 290.531 59.5177C290.016 59.4317 289.457 59.4317 288.855 59.5177C288.64 59.5606 288.425 59.6251 288.211 59.7111C288.039 59.797 287.845 59.8615 287.63 59.9045C287.244 59.9904 286.943 60.0549 286.728 60.0979C286.556 60.0979 286.406 60.1409 286.277 60.2268C286.191 60.3128 286.083 60.4417 285.954 60.6136C285.868 60.7855 285.718 61.0434 285.503 61.3872C285.159 62.1608 284.944 62.9989 284.858 63.9014C284.772 64.761 284.686 65.685 284.6 66.6735C285.073 67.1463 285.524 67.5331 285.954 67.8339C286.384 68.0918 287.05 68.2207 287.953 68.2207C288.425 68.2207 288.791 68.1777 289.049 68.0918C289.35 67.9628 289.736 67.8769 290.209 67.8339C290.682 67.8339 291.155 67.8769 291.627 67.9628C292.1 68.0058 292.637 68.0058 293.239 67.9628C294.485 67.8769 295.538 67.7265 296.398 67.5116C297.257 67.2537 298.31 67.1677 299.557 67.2537C299.815 67.2537 300.266 67.2752 300.911 67.3182C301.598 67.3611 302.286 67.4256 302.974 67.5116C303.661 67.5545 304.263 67.6405 304.779 67.7694C305.337 67.8984 305.617 68.0703 305.617 68.2852C305.617 68.543 305.445 68.8224 305.101 69.1232C304.8 69.3811 304.435 69.639 304.005 69.8968C303.618 70.1117 303.21 70.3051 302.78 70.477C302.393 70.606 302.135 70.6919 302.007 70.7349C301.276 70.9498 300.567 71.0143 299.879 70.9283C299.191 70.7994 298.439 70.7779 297.623 70.8638C297.021 70.9498 296.484 71.0787 296.011 71.2506C295.538 71.4226 295.066 71.616 294.593 71.8308C294.12 72.0028 293.626 72.1962 293.11 72.411C292.637 72.583 292.079 72.6904 291.434 72.7334C290.574 72.8193 289.844 72.9268 289.242 73.0557C288.64 73.1417 287.931 73.2706 287.115 73.4425C286.771 73.5285 286.448 73.6144 286.148 73.7004C285.847 73.8293 285.524 73.9368 285.181 74.0227C283.934 74.2806 282.58 74.3236 281.119 74.1517C279.701 74.0227 278.154 74.0442 276.478 74.2161C275.403 74.3451 274.436 74.4955 273.577 74.6674C272.76 74.8823 271.922 74.9467 271.062 74.8608C270.762 74.8178 270.482 74.7748 270.224 74.7319C269.923 74.7319 269.666 74.6244 269.451 74.4095C269.537 74.0657 269.73 73.7649 270.031 73.507C270.332 73.2491 270.633 73.0127 270.933 72.7978C271.234 72.54 271.514 72.2821 271.772 72.0242C272.072 71.7234 272.352 71.444 272.61 71.1862C272.867 70.8424 273.082 70.4341 273.254 69.9613C273.426 69.4456 273.577 68.9298 273.706 68.4141C273.877 67.8984 274.049 67.4256 274.221 66.9958C274.436 66.5231 274.694 66.1148 274.995 65.771C274.651 64.9974 274.651 64.1163 274.995 63.1278C275.382 62.1393 275.726 61.1079 276.026 60.0334C276.112 59.7755 276.155 59.5177 276.155 59.2598C276.155 59.0019 276.198 58.7656 276.284 58.5507C276.37 58.1209 276.564 57.7556 276.864 57.4547C277.165 57.1109 277.359 56.7671 277.445 56.4233C277.488 56.2084 277.488 55.9935 277.445 55.7786C277.445 55.5637 277.466 55.3488 277.509 55.1339C277.595 54.4893 277.745 53.8876 277.96 53.3289C278.218 52.7272 278.39 52.1899 278.476 51.7172C278.562 51.3734 278.562 51.0295 278.476 50.6857C278.433 50.2989 278.433 49.9336 278.476 49.5898C278.562 48.7302 278.734 47.9136 278.992 47.14C279.293 46.3664 279.465 45.6788 279.508 45.0771C279.551 44.6043 279.486 44.0886 279.314 43.5299C279.142 42.9712 278.97 42.5414 278.798 42.2405C278.669 42.0257 278.476 41.8108 278.218 41.5959C277.96 41.338 277.702 41.1016 277.445 40.8867C277.187 40.6719 276.95 40.4785 276.735 40.3065C276.564 40.0916 276.478 39.8982 276.478 39.7263C276.521 39.2536 276.714 39.0172 277.058 39.0172C277.402 38.9742 277.724 38.8238 278.025 38.5659C279.572 38.6089 281.033 38.7808 282.409 39.0817C283.827 39.3825 285.288 39.5759 286.792 39.6619C287.351 39.7478 287.931 39.7478 288.533 39.6619C289.135 39.5329 289.715 39.447 290.274 39.404C291.176 39.361 292.186 39.49 293.303 39.7908C294.464 40.0916 295.603 40.1991 296.72 40.1131C298.224 40.0272 299.643 39.9842 300.975 39.9842C302.307 39.9842 303.704 39.9412 305.165 39.8553C305.423 40.0702 305.81 40.1776 306.326 40.1776C306.842 40.1346 307.357 40.0916 307.873 40.0487C308.432 39.9627 308.926 39.9412 309.356 39.9842C309.828 40.0272 310.151 40.2206 310.323 40.5644C310.581 41.1661 310.538 41.6818 310.194 42.1116C309.85 42.5414 309.377 42.8207 308.776 42.9497C308.604 42.9497 308.367 42.9712 308.066 43.0141C307.766 43.0571 307.443 43.1001 307.099 43.1431C306.756 43.1861 306.412 43.2075 306.068 43.2075C305.767 43.2075 305.552 43.2075 305.423 43.2075Z" fill="white"></path>
  <path d="M334.854 39.6619C335.197 39.7478 335.541 39.7908 335.885 39.7908C336.229 39.7908 336.573 39.8338 336.917 39.9197C337.046 39.9197 337.174 39.9627 337.303 40.0487C337.432 40.1346 337.561 40.1991 337.69 40.2421C337.819 40.2851 337.948 40.2851 338.077 40.2421C338.206 40.1991 338.335 40.1991 338.464 40.2421C339.452 40.4999 340.247 40.9082 340.849 41.4669C341.451 41.9827 342.052 42.6273 342.654 43.4009C342.912 43.8307 343.234 44.3465 343.621 44.9482C344.008 45.5069 344.33 46.1515 344.588 46.8822C344.846 47.5698 344.996 48.3004 345.039 49.074C345.082 49.8476 344.932 50.6212 344.588 51.3948C344.502 51.6097 344.373 51.8891 344.201 52.2329C344.029 52.5338 343.858 52.8561 343.686 53.1999C343.428 53.6727 343.105 54.1669 342.719 54.6827C342.332 55.1984 341.924 55.5637 341.494 55.7786C341.15 55.9935 340.849 56.1869 340.591 56.3588C340.376 56.5307 340.097 56.7026 339.753 56.8745C339.151 57.0894 338.55 57.4118 337.948 57.8415C337.389 58.2283 336.809 58.5507 336.207 58.8085C335.993 58.8945 335.756 58.959 335.498 59.0019C335.283 59.0019 335.069 59.0449 334.854 59.1309C334.553 59.3028 334.316 59.5392 334.145 59.84C333.973 60.1409 333.65 60.3557 333.178 60.4847C334.252 60.7425 335.24 61.3442 336.143 62.2897C337.046 63.1923 337.733 64.1378 338.206 65.1263C338.421 65.728 338.722 66.2652 339.108 66.738C339.495 67.2107 339.667 67.7479 339.624 68.3496C339.925 68.6075 340.161 68.9513 340.333 69.3811C340.548 69.7679 340.72 70.1977 340.849 70.6704C340.978 71.1432 341.085 71.6374 341.171 72.1532C341.3 72.6259 341.451 73.0557 341.623 73.4425C341.881 74.0012 342.16 74.4525 342.461 74.7963C342.762 75.1831 343.084 75.5269 343.428 75.8278C343.772 76.1716 344.115 76.5154 344.459 76.8593C344.803 77.2461 345.104 77.7188 345.362 78.2775C345.534 78.2346 345.663 78.1701 345.749 78.0841C345.878 78.0412 346.049 78.0412 346.264 78.0841C346.909 78.5569 347.618 78.9222 348.392 79.1801C349.208 79.4379 350.197 79.6528 351.357 79.8247C352.346 79.9967 353.27 80.0396 354.129 79.9537C355.032 79.9107 355.956 79.8033 356.901 79.6313C357.202 79.5884 357.568 79.4594 357.997 79.2445C358.47 79.0726 358.921 78.9222 359.351 78.7933C359.824 78.6643 360.232 78.5999 360.576 78.5999C360.92 78.6428 361.092 78.8792 361.092 79.309C361.092 79.6099 360.898 79.9752 360.511 80.4049C360.125 80.8347 359.781 81.1571 359.48 81.3719C358.749 81.8877 357.911 82.296 356.966 82.5968C356.02 82.8977 355.032 83.134 354 83.306C352.969 83.5208 351.916 83.6713 350.841 83.7572C349.767 83.8432 348.757 83.9076 347.812 83.9506C347.21 83.9506 346.651 83.8432 346.135 83.6283C345.663 83.4564 345.233 83.3274 344.846 83.2415C343.986 83.1126 343.213 82.9621 342.525 82.7902C341.881 82.6183 341.257 82.3604 340.656 82.0166C340.14 81.7158 339.689 81.286 339.302 80.7273C338.915 80.2115 338.378 79.8892 337.69 79.7603C336.573 78.7718 335.455 77.7618 334.338 76.7303C333.221 75.7418 332.339 74.4955 331.695 72.9913C331.48 72.6044 331.244 72.2391 330.986 71.8953C330.728 71.5085 330.534 71.1002 330.405 70.6704C330.277 70.3696 330.191 70.0473 330.148 69.7034C330.148 69.3596 330.105 68.9728 330.019 68.543C329.933 68.0703 329.804 67.576 329.632 67.0603C329.46 66.5016 329.288 65.9858 329.116 65.5131C329.073 65.3842 329.009 65.2552 328.923 65.1263C328.837 64.9974 328.772 64.8684 328.729 64.7395C328.643 64.4816 328.557 64.1808 328.471 63.837C328.385 63.4502 328.235 63.1493 328.02 62.9344C327.805 62.7625 327.44 62.5691 326.924 62.3542C326.451 62.1393 326.043 61.9889 325.699 61.9029C325.227 61.817 324.754 61.8385 324.281 61.9674C323.851 62.0963 323.443 62.1823 323.056 62.2253C322.498 62.3112 321.96 62.3327 321.445 62.2897C320.929 62.2038 320.499 62.2253 320.155 62.3542C319.554 62.5691 319.059 63.1278 318.672 64.0304C318.286 64.9329 318.049 65.8784 317.963 66.8669C317.791 67.8554 317.534 68.8224 317.19 69.7679C316.846 70.6704 316.567 71.5515 316.352 72.411C316.18 72.9698 315.9 73.421 315.514 73.7649C315.127 74.1517 314.59 74.3021 313.902 74.2161C313.558 74.1731 313.279 74.1302 313.064 74.0872C312.892 74.0872 312.656 74.0012 312.355 73.8293C312.14 73.9153 311.753 74.1087 311.194 74.4095C310.679 74.7533 310.313 74.9897 310.098 75.1187C308.68 75.5484 307.864 75.441 307.649 74.7963C307.477 74.1517 307.563 73.1202 307.907 71.7019C308.121 70.7994 308.444 69.9183 308.874 69.0588C309.346 68.1992 309.669 67.4686 309.841 66.8669C309.926 66.4801 309.948 66.1363 309.905 65.8354C309.905 65.4916 309.883 65.1693 309.841 64.8684C309.798 64.5676 309.776 64.3097 309.776 64.0948C309.776 63.837 309.862 63.6006 310.034 63.3857C310.077 62.9129 310.206 62.5476 310.421 62.2897C310.636 61.9889 310.786 61.6021 310.872 61.1293C310.958 60.6996 311.065 60.2483 311.194 59.7755C311.323 59.3028 311.409 58.8515 311.452 58.4217C311.495 57.906 311.517 57.4332 311.517 57.0035C311.56 56.5307 311.71 55.9935 311.968 55.3918C312.183 54.8331 312.398 54.2744 312.613 53.7157C312.87 53.114 313.042 52.5338 313.128 51.975C313.214 51.5453 313.257 51.1155 313.257 50.6857C313.3 50.213 313.408 49.7617 313.58 49.3319C313.666 48.9881 313.837 48.7087 314.095 48.4938C314.396 48.2789 314.59 47.9996 314.676 47.6558C314.719 47.3979 314.697 47.1615 314.611 46.9466C314.525 46.7317 314.525 46.5168 314.611 46.302C314.869 45.4424 314.955 44.7762 314.869 44.3035C314.783 43.7878 314.633 43.3795 314.418 43.0786C314.246 42.7348 314.074 42.4125 313.902 42.1116C313.773 41.8108 313.773 41.4025 313.902 40.8867C314.117 40.8438 314.31 40.6719 314.482 40.371C314.654 40.0272 314.89 39.8123 315.191 39.7263C315.363 39.6834 315.686 39.6619 316.158 39.6619C316.631 39.6189 317.147 39.5974 317.705 39.5974C318.264 39.5544 318.801 39.5544 319.317 39.5974C319.833 39.5974 320.241 39.5974 320.542 39.5974C320.886 39.6404 321.316 39.6404 321.831 39.5974C322.347 39.5114 322.884 39.4685 323.443 39.4685C324.002 39.4255 324.517 39.404 324.99 39.404C325.506 39.404 325.936 39.49 326.28 39.6619H334.854ZM325.055 56.1009C325.399 56.1009 325.721 56.015 326.022 55.8431C326.366 55.6711 326.688 55.6282 326.989 55.7141C327.418 55.8001 327.848 55.8645 328.278 55.9075C328.708 55.9505 329.181 56.015 329.696 56.1009C329.911 56.1439 330.126 56.1224 330.341 56.0365C330.556 55.9505 330.835 55.929 331.179 55.972C331.867 55.4563 332.468 55.0695 332.984 54.8116C333.543 54.5537 334.059 54.038 334.531 53.2644C334.746 52.8776 334.983 52.5123 335.24 52.1684C335.498 51.7816 335.67 51.4593 335.756 51.2014C336.057 50.213 336.014 49.3749 335.627 48.6872C335.24 47.9566 334.875 47.3119 334.531 46.7532C334.102 46.1086 333.693 45.6573 333.306 45.3994C332.92 45.0986 332.275 44.9911 331.372 45.0771C330.642 45.1201 329.89 45.1201 329.116 45.0771C328.343 44.9911 327.59 44.9696 326.86 45.0126C326.172 45.0556 325.549 45.1845 324.99 45.3994C324.432 45.6143 324.023 46.0011 323.765 46.5598C323.55 47.2045 323.293 47.9136 322.992 48.6872C322.691 49.4608 322.412 50.2559 322.154 51.0725C321.896 51.8461 321.681 52.6412 321.509 53.4578C321.337 54.2744 321.251 55.0695 321.251 55.8431C321.896 55.7571 322.54 55.8001 323.185 55.972C323.83 56.1009 324.453 56.1439 325.055 56.1009Z" fill="white"></path>
  <path d="M379.877 29.1843C379.791 28.9694 379.77 28.819 379.813 28.733C379.856 28.6471 379.877 28.4752 379.877 28.2173C379.405 27.9594 378.932 27.895 378.459 28.0239C378.029 28.1528 377.578 28.2388 377.105 28.2818C376.633 28.2818 376.074 28.2173 375.429 28.0884C374.827 27.9594 374.183 27.8305 373.495 27.7016C372.85 27.5726 372.184 27.4867 371.497 27.4437C370.809 27.3577 370.143 27.3792 369.498 27.5082C369.154 27.5941 368.66 27.809 368.015 28.1528C367.371 28.4537 366.898 28.6901 366.597 28.862C365.609 29.4637 364.9 30.3447 364.47 31.5051C364.04 32.6655 363.653 33.8474 363.309 35.0508C363.137 35.2227 362.944 35.3731 362.729 35.5021C362.557 35.631 362.428 35.8029 362.342 36.0178C362.342 36.3186 362.45 36.555 362.665 36.7269C362.923 36.8988 363.094 37.1137 363.18 37.3716C363.438 38.0163 363.675 38.6609 363.89 39.3056C364.104 39.9503 364.384 40.552 364.728 41.1107C365.286 41.9702 366.06 42.6579 367.048 43.1736C368.08 43.6894 369.111 44.1836 370.143 44.6564C370.873 45.0432 371.497 45.344 372.012 45.5589C372.571 45.7308 373.216 45.9887 373.946 46.3325C374.376 46.5474 374.763 46.6978 375.107 46.7838C375.451 46.8697 375.773 46.9772 376.074 47.1061C376.375 47.235 376.654 47.4069 376.912 47.6218C377.17 47.7937 377.449 48.0516 377.75 48.3954C378.008 48.6533 378.244 48.9112 378.459 49.169C378.717 49.4269 378.953 49.6633 379.168 49.8782C379.641 50.3509 379.963 50.8022 380.135 51.232C380.35 51.6188 380.758 51.9626 381.36 52.2634C381.446 52.6932 381.639 53.0585 381.94 53.3594C382.241 53.6173 382.435 53.9181 382.521 54.2619C382.606 54.7347 382.542 55.143 382.327 55.4868C382.112 55.8306 382.026 56.2174 382.069 56.6472C382.112 57.034 382.241 57.3563 382.456 57.6142C382.714 57.8291 382.886 58.1084 382.972 58.4523C383.058 58.7961 383.058 59.1829 382.972 59.6127C382.886 60.0425 382.757 60.4722 382.585 60.902C382.37 61.5467 382.198 62.1699 382.069 62.7715C381.983 63.3732 381.854 63.9534 381.682 64.5122C381.511 65.0709 381.274 65.6081 380.973 66.1238C380.672 66.5966 380.221 67.0264 379.62 67.4132C379.448 67.4991 379.254 67.5851 379.039 67.671C378.867 67.714 378.695 67.7785 378.524 67.8644C378.309 67.9504 378.137 68.0578 378.008 68.1868C377.879 68.3157 377.75 68.4231 377.621 68.5091C377.449 68.5951 377.256 68.6595 377.041 68.7025C376.869 68.7455 376.697 68.8099 376.525 68.8959C376.267 69.0248 376.031 69.1967 375.816 69.4116C375.601 69.5836 375.365 69.7125 375.107 69.7984C374.677 70.0133 374.355 70.3142 374.14 70.701C373.925 71.0448 373.538 71.3242 372.979 71.539C372.507 71.7539 372.12 72.0333 371.819 72.3771C371.518 72.7209 371.174 72.9358 370.788 73.0218C370.143 73.1507 369.477 73.1292 368.789 72.9573C368.101 72.7854 367.414 72.6994 366.726 72.6994C366.038 72.6565 365.329 72.678 364.599 72.7639C363.868 72.8929 363.137 72.9788 362.407 73.0218C361.633 73.1077 360.795 73.1937 359.893 73.2797C359.033 73.4086 358.302 73.4086 357.701 73.2797C357.185 73.1937 356.519 73.0433 355.702 72.8284C354.886 72.6565 354.069 72.4416 353.253 72.1837C352.436 71.9688 351.662 71.711 350.932 71.4101C350.244 71.1522 349.75 70.8729 349.449 70.572C349.234 70.3572 349.041 70.0993 348.869 69.7984C348.74 69.4546 348.568 69.1753 348.353 68.9604C347.88 68.4876 347.322 68.0363 346.677 67.6066C346.032 67.1338 345.559 66.6396 345.259 66.1238C345.13 65.866 345.044 65.6081 345.001 65.3502C344.915 65.0494 344.829 64.7485 344.743 64.4477C344.657 64.1468 344.528 63.8675 344.356 63.6096C344.184 63.3518 344.077 63.1154 344.034 62.9005C343.991 62.6426 344.034 62.4277 344.163 62.2558C344.292 62.0409 344.378 61.826 344.421 61.6111C344.507 61.1384 344.571 60.6656 344.614 60.1929C344.614 59.7201 344.786 59.2903 345.13 58.9035C345.517 58.8176 346.054 58.6027 346.741 58.2589C347.429 57.915 348.074 57.6572 348.675 57.4853C349.32 57.2704 349.814 57.2059 350.158 57.2919C350.545 57.3778 350.588 57.8076 350.287 58.5812C350.717 58.8391 351.018 59.1829 351.19 59.6127C351.362 59.9995 351.469 60.4293 351.512 60.902C351.598 61.3318 351.662 61.8045 351.705 62.3203C351.791 62.836 351.942 63.3303 352.157 63.803C352.371 64.3188 352.801 64.7485 353.446 65.0924C354.134 65.4362 354.649 65.8015 354.993 66.1883C355.638 66.1453 356.24 66.2098 356.798 66.3817C357.357 66.5536 357.894 66.747 358.41 66.9619C358.969 67.1338 359.527 67.3057 360.086 67.4776C360.688 67.6066 361.332 67.6281 362.02 67.5421C362.278 67.4991 362.536 67.2842 362.794 66.8974C363.094 66.4677 363.374 66.2313 363.632 66.1883C364.749 65.9304 365.781 65.78 366.726 65.737C367.672 65.694 368.51 65.3502 369.24 64.7056C369.799 64.2328 370.229 63.7815 370.53 63.3518C370.873 62.922 371.067 62.4062 371.11 61.8045C371.153 61.1169 371.067 60.5797 370.852 60.1929C370.68 59.7631 370.422 59.4193 370.078 59.1614C369.735 58.9035 369.326 58.6672 368.854 58.4523C368.424 58.2374 367.994 57.958 367.564 57.6142C367.306 57.4423 367.048 57.2489 366.791 57.034C366.576 56.8191 366.361 56.6687 366.146 56.5827C365.286 56.1959 364.341 55.8736 363.309 55.6157C362.321 55.3149 361.397 54.9711 360.537 54.5843C360.108 54.3694 359.742 53.9826 359.441 53.4239C359.141 52.8651 358.754 52.5428 358.281 52.4568C358.066 52.3709 357.83 52.3709 357.572 52.4568C357.314 52.5428 357.035 52.5643 356.734 52.5213C356.39 52.4783 355.917 52.2849 355.315 51.9411C354.757 51.5973 354.37 51.3179 354.155 51.103C354.026 50.9741 353.919 50.8022 353.833 50.5873C353.747 50.3294 353.618 50.1146 353.446 49.9426C353.145 49.5558 352.823 49.212 352.479 48.9112C352.135 48.6103 351.899 48.288 351.77 47.9442C351.684 47.6863 351.619 47.4499 351.576 47.235C351.576 47.0201 351.533 46.8053 351.447 46.5904C351.362 46.4184 351.254 46.268 351.125 46.1391C350.996 46.0102 350.867 45.8597 350.738 45.6878C350.652 45.4729 350.609 45.258 350.609 45.0432C350.609 44.7853 350.566 44.5274 350.48 44.2696C350.223 43.496 349.965 42.8298 349.707 42.2711C349.449 41.6694 349.363 40.8528 349.449 39.8213C349.492 39.1337 349.449 38.5965 349.32 38.2097C349.234 37.8229 349.256 37.3931 349.385 36.9203C349.47 36.5765 349.556 36.2757 349.642 36.0178C349.728 35.7169 349.836 35.3946 349.965 35.0508C350.051 34.7499 350.094 34.4491 350.094 34.1483C350.137 33.8474 350.201 33.5895 350.287 33.3746C350.416 33.1598 350.588 32.9234 350.803 32.6655C351.061 32.4076 351.276 32.1498 351.447 31.8919C351.92 31.1613 352.393 30.4307 352.866 29.7C353.339 28.9264 353.962 28.2818 354.735 27.766C355.079 27.0784 355.702 26.3907 356.605 25.7031C357.507 24.9725 358.41 24.4138 359.312 24.027C360.301 23.5542 361.397 23.0599 362.6 22.5442C363.804 21.9855 364.835 21.6202 365.695 21.4483C366.339 21.3193 366.963 21.2549 367.564 21.2549C368.166 21.2549 368.811 21.2549 369.498 21.2549C370.573 21.2119 371.411 21.2119 372.012 21.2549C372.614 21.2979 373.345 21.3838 374.204 21.5127C374.548 21.5987 374.913 21.6632 375.3 21.7061C375.73 21.7491 376.095 21.8136 376.396 21.8995C376.611 21.9855 376.783 22.0929 376.912 22.2219C377.041 22.3078 377.256 22.3723 377.557 22.4153C378.029 22.4583 378.502 22.4153 378.975 22.2863C379.491 22.1144 379.985 22.05 380.458 22.0929C381.317 22.1789 382.005 22.3938 382.521 22.7376C383.079 23.0814 383.702 23.4467 384.39 23.8335C384.777 24.0484 385.164 24.2418 385.55 24.4138C385.937 24.5857 386.238 24.7791 386.453 24.994C386.711 25.2518 386.969 25.6171 387.227 26.0899C387.484 26.5626 387.721 27.0784 387.936 27.6371C388.151 28.1528 388.323 28.6901 388.451 29.2488C388.623 29.8075 388.709 30.2802 388.709 30.667C388.709 30.8819 388.688 31.0753 388.645 31.2472C388.602 31.4192 388.58 31.6126 388.58 31.8274C388.623 32.1713 388.752 32.5581 388.967 32.9878C389.182 33.4176 389.247 33.8689 389.161 34.3417C389.118 34.6855 388.946 34.9648 388.645 35.1797C388.387 35.3516 388.151 35.588 387.936 35.8889C387.764 36.1467 387.635 36.4476 387.549 36.7914C387.463 37.0922 387.334 37.3501 387.162 37.565C386.947 37.8658 386.732 38.1237 386.517 38.3386C386.346 38.5535 386.217 38.8114 386.131 39.1122C385.701 39.585 385.035 40.0147 384.132 40.4015C383.273 40.7454 382.306 41.0247 381.231 41.2396C380.157 41.4545 379.061 41.5619 377.943 41.5619C376.869 41.5619 375.923 41.433 375.107 41.1751C374.892 41.0892 374.677 40.9603 374.462 40.7883C374.29 40.6164 374.075 40.4875 373.817 40.4015C373.56 40.3156 373.28 40.2511 372.979 40.2081C372.722 40.1652 372.507 40.0792 372.335 39.9503C372.077 39.7784 371.69 39.3916 371.174 38.7899C370.702 38.1452 370.422 37.651 370.336 37.3071C370.164 37.0063 370.078 36.6839 370.078 36.3401C370.121 35.9533 370.164 35.545 370.207 35.1153C370.293 34.7285 370.358 34.2557 370.401 33.697C370.487 33.0953 370.659 32.687 370.916 32.4721C371.002 32.3862 371.196 32.2787 371.497 32.1498C371.798 32.0208 372.12 32.0208 372.464 32.1498C372.808 32.2357 373.108 32.4721 373.366 32.8589C373.624 33.2457 373.882 33.6755 374.14 34.1483C374.398 34.578 374.656 35.0078 374.913 35.4376C375.214 35.8244 375.537 36.1037 375.88 36.2757C376.396 36.5765 377.019 36.7484 377.75 36.7914C378.524 36.7914 379.147 36.6839 379.62 36.4691C380.436 36.2112 381.038 35.7814 381.425 35.1797C381.854 34.578 382.069 33.9119 382.069 33.1812C382.069 32.4506 381.876 31.7415 381.489 31.0538C381.145 30.3232 380.608 29.7 379.877 29.1843Z" fill="#FCC500"></path>
  <path d="M422.781 37.2427C422.867 37.7154 422.76 38.1237 422.459 38.4675C422.201 38.7684 421.857 38.9618 421.428 39.0477C421.514 39.3486 421.664 39.542 421.879 39.6279C422.094 39.6709 422.244 39.7998 422.33 40.0147C421.986 40.7024 421.406 41.2181 420.589 41.5619C419.816 41.8628 418.999 42.1207 418.14 42.3355C417.624 42.4215 417.065 42.4645 416.464 42.4645C415.905 42.4645 415.368 42.4215 414.852 42.3355C414.121 42.2066 413.434 41.9702 412.789 41.6264C412.144 41.2396 411.521 41.0892 410.919 41.1751C410.748 41.2181 410.554 41.3256 410.339 41.4975C410.167 41.6694 409.974 41.7983 409.759 41.8843C409.329 42.1851 408.792 42.443 408.147 42.6579C407.546 42.8298 407.073 43.0232 406.729 43.2381C405.741 43.7968 404.817 44.4844 403.957 45.301C403.097 46.1176 402.195 46.8267 401.249 47.4284C400.906 48.1161 400.562 48.8037 400.218 49.4914C399.917 50.136 399.595 50.8882 399.251 51.7477C399.079 52.1345 398.886 52.5428 398.671 52.9726C398.499 53.3594 398.37 53.7462 398.284 54.133C398.198 54.5198 398.112 54.9925 398.026 55.5513C397.983 56.11 397.897 56.6257 397.768 57.0985C397.682 57.4423 397.532 57.7431 397.317 58.001C397.145 58.2589 397.081 58.5812 397.124 58.968C397.21 59.3118 397.381 59.5912 397.639 59.8061C397.94 60.021 398.134 60.2788 398.219 60.5797C398.305 60.7516 398.305 60.945 398.219 61.1599C398.177 61.3318 398.177 61.5252 398.219 61.7401C398.391 62.4707 398.757 63.1369 399.315 63.7386C399.917 64.3402 400.411 64.9204 400.798 65.4792C401.701 65.5651 402.496 65.7155 403.183 65.9304C403.914 66.1023 404.666 66.2528 405.44 66.3817C406.17 66.0379 406.901 65.7585 407.632 65.5436C408.405 65.3287 409.222 65.0709 410.081 64.77C410.726 64.5551 411.349 64.2328 411.951 63.803C412.596 63.3303 413.262 63.0509 413.949 62.9649C414.078 62.9649 414.229 63.0079 414.401 63.0939C414.573 63.1369 414.723 63.1369 414.852 63.0939C415.196 63.0509 415.497 62.922 415.754 62.7071C416.012 62.4922 416.27 62.2988 416.528 62.1269C416.829 61.912 417.13 61.7401 417.431 61.6111C417.774 61.4822 418.161 61.4607 418.591 61.5467C419.021 62.2773 419.085 62.8575 418.784 63.2873C418.527 63.7171 418.14 64.1254 417.624 64.5122C417.108 64.856 416.593 65.2428 416.077 65.6726C415.604 66.1023 415.368 66.6611 415.368 67.3487C414.981 67.7785 414.508 68.2297 413.949 68.7025C413.391 69.1753 412.746 69.5621 412.015 69.8629C411.715 69.9489 411.392 70.0348 411.048 70.1208C410.748 70.1638 410.468 70.2282 410.21 70.3142C409.308 70.658 408.47 71.0233 407.696 71.4101C406.923 71.7969 405.956 71.9688 404.795 71.9258C404.107 71.9258 403.484 71.8614 402.926 71.7324C402.453 71.6465 402.002 71.4961 401.572 71.2812C401.185 71.0663 400.755 70.9159 400.282 70.8299C399.681 70.744 399.079 70.744 398.477 70.8299C397.876 70.9159 397.317 70.9159 396.801 70.8299C396.285 70.744 395.748 70.5506 395.19 70.2497C394.631 69.9059 394.094 69.5621 393.578 69.2182C393.019 68.9174 392.482 68.638 391.966 68.3802C391.493 68.0793 391.021 67.8 390.548 67.5421C389.989 67.1553 389.516 66.6825 389.13 66.1238C388.786 65.5221 388.356 64.9849 387.84 64.5122C387.625 63.6526 387.539 62.8145 387.582 61.9979C387.625 61.1384 387.625 60.2788 387.582 59.4193C387.539 58.6457 387.389 57.8506 387.131 57.034C386.916 56.2174 386.852 55.4868 386.938 54.8421C387.024 54.5413 387.131 54.2189 387.26 53.8751C387.389 53.5313 387.475 53.166 387.518 52.7792C387.604 52.1775 387.69 51.6403 387.776 51.1675C387.905 50.6518 388.098 50.1575 388.356 49.6848C388.528 49.3839 388.721 49.1046 388.936 48.8467C389.194 48.5888 389.431 48.331 389.645 48.0731C389.903 47.8152 390.118 47.5359 390.29 47.235C390.462 46.9342 390.569 46.5474 390.612 46.0746C390.87 45.7308 391.171 45.4729 391.515 45.301C391.902 45.1291 392.203 44.8712 392.417 44.5274C392.546 44.3125 392.611 44.0976 392.611 43.8828C392.611 43.6679 392.697 43.453 392.869 43.2381C393.084 42.9802 393.406 42.7009 393.836 42.4C394.266 42.0992 394.631 41.8413 394.932 41.6264C395.791 41.1537 396.694 40.7239 397.639 40.3371C398.585 39.9073 399.466 39.3916 400.282 38.7899C400.798 38.7899 401.292 38.7254 401.765 38.5965C402.281 38.4246 402.754 38.2526 403.183 38.0807C403.656 37.8658 404.129 37.6724 404.602 37.5005C405.074 37.2856 405.569 37.1352 406.084 37.0493C406.557 37.0063 407.073 37.0063 407.632 37.0493C408.19 37.0493 408.728 37.0278 409.243 36.9848C410.017 36.9418 410.791 36.9203 411.564 36.9203C412.381 36.8773 413.111 36.8988 413.756 36.9848C414.057 37.0278 414.358 37.1352 414.659 37.3071C414.959 37.4361 415.282 37.5005 415.626 37.5005C415.926 37.5005 416.227 37.4361 416.528 37.3071C416.872 37.1782 417.194 37.0922 417.495 37.0493C418.355 36.9633 419.236 36.9633 420.138 37.0493C421.041 37.0922 421.922 37.1567 422.781 37.2427Z" fill="#FCC500"></path>
  <path d="M433.71 41.6264C434.526 41.0677 435.236 40.423 435.837 39.6924C436.439 38.9618 437.019 38.2312 437.578 37.5005C437.922 37.5435 438.222 37.479 438.48 37.3071C438.738 37.1352 439.018 37.0063 439.318 36.9203C439.92 36.7484 440.522 36.7699 441.123 36.9848C441.768 37.1567 442.391 37.2212 442.993 37.1782C443.724 37.0922 444.411 36.8988 445.056 36.598C445.744 36.2971 446.539 36.1467 447.441 36.1467C447.742 36.1467 448.021 36.2542 448.279 36.4691C448.537 36.641 448.795 36.7484 449.053 36.7914C449.397 36.8773 449.698 36.8344 449.955 36.6625C450.256 36.4905 450.579 36.4046 450.922 36.4046C451.524 36.4046 451.975 36.598 452.276 36.9848C452.62 37.3716 453.007 37.7584 453.437 38.1452C453.652 39.1337 453.673 40.1007 453.501 41.0462C453.329 41.9917 453.286 42.9587 453.372 43.9472C453.458 44.5919 453.544 45.2151 453.63 45.8168C453.759 46.4184 453.823 47.0416 453.823 47.6863C453.866 48.245 453.823 48.8467 453.695 49.4914C453.609 50.0931 453.587 50.6948 453.63 51.2964C453.673 51.5113 453.738 51.7262 453.823 51.9411C453.909 52.156 453.931 52.3709 453.888 52.5858C453.802 53.0585 453.609 53.4239 453.308 53.6817C453.007 53.9396 452.835 54.2834 452.792 54.7132C452.706 55.3579 452.835 55.9595 453.179 56.5183C453.566 57.077 453.802 57.6572 453.888 58.2589C453.931 58.5167 453.909 58.7961 453.823 59.0969C453.738 59.3978 453.695 59.6771 453.695 59.935C453.609 60.8805 453.609 61.9335 453.695 63.0939C453.823 64.2543 453.909 65.3287 453.952 66.3172C453.952 66.6611 453.974 67.0049 454.017 67.3487C454.103 67.6925 454.103 67.9719 454.017 68.1868C453.974 68.4017 453.866 68.5736 453.695 68.7025C453.566 68.8314 453.458 68.9819 453.372 69.1538C453.329 69.3687 453.329 69.6695 453.372 70.0563C453.458 70.4431 453.501 70.8084 453.501 71.1522C453.501 71.4531 453.48 71.7324 453.437 71.9903C453.394 72.2912 453.372 72.549 453.372 72.7639C453.415 72.8929 453.458 73.0218 453.501 73.1507C453.587 73.3226 453.609 73.4731 453.566 73.602C453.48 73.9888 453.179 74.3971 452.663 74.8269C452.19 75.2996 451.696 75.5145 451.18 75.4715C450.922 75.4285 450.536 75.2137 450.02 74.8269C449.547 74.483 449.203 74.2037 448.988 73.9888C448.602 73.516 448.365 72.9143 448.279 72.1837C448.193 71.4531 448 70.7869 447.699 70.1852C447.57 69.9704 447.377 69.777 447.119 69.605C446.904 69.3901 446.711 69.1538 446.539 68.8959C446.281 68.4231 446.109 67.9504 446.023 67.4776C445.937 66.9619 445.873 66.4677 445.83 65.9949C445.83 65.4792 445.808 64.9849 445.765 64.5122C445.722 63.9964 445.615 63.4807 445.443 62.9649C445.357 62.793 445.228 62.6426 445.056 62.5137C444.884 62.3847 444.734 62.2128 444.605 61.9979C444.347 61.5682 444.175 61.2029 444.089 60.902C444.003 60.6012 443.724 60.3648 443.251 60.1929C441.747 60.1929 440.221 60.1499 438.674 60.0639C437.17 59.978 435.687 60.021 434.226 60.1929C433.882 60.2359 433.581 60.3218 433.323 60.4507C433.065 60.5367 432.764 60.6012 432.42 60.6441C432.249 60.6441 432.077 60.6227 431.905 60.5797C431.733 60.5367 431.582 60.5152 431.453 60.5152C430.852 60.6012 430.272 60.8805 429.713 61.3533C429.154 61.7831 428.724 62.2128 428.424 62.6426C428.252 62.9005 428.144 63.2228 428.101 63.6096C428.101 63.9534 428.037 64.2973 427.908 64.6411C427.779 64.9849 427.564 65.3072 427.263 65.6081C426.962 65.866 426.855 66.2098 426.941 66.6396C426.468 66.9834 426.06 67.4132 425.716 67.9289C425.415 68.4446 425.114 68.9819 424.813 69.5406C424.513 70.0563 424.169 70.5506 423.782 71.0233C423.438 71.4961 423.008 71.8399 422.493 72.0548C422.278 72.1407 422.063 72.2482 421.848 72.3771C421.676 72.506 421.483 72.5705 421.268 72.5705C421.053 72.5275 420.924 72.4631 420.881 72.3771C420.881 72.2912 420.752 72.1622 420.494 71.9903C420.236 71.8184 419.935 71.625 419.592 71.4101C419.205 71.1952 418.839 70.9588 418.496 70.701C418.152 70.4431 417.851 70.1852 417.593 69.9274C417.292 69.6265 417.077 69.3472 416.948 69.0893C416.605 68.3587 416.54 67.8429 416.755 67.5421C416.97 67.1983 417.249 66.79 417.593 66.3172C418.066 65.6296 418.603 64.856 419.205 63.9964C419.806 63.1369 420.344 62.3203 420.816 61.5467C421.074 61.1169 421.289 60.7086 421.461 60.3218C421.676 59.935 421.934 59.5697 422.235 59.2259C422.579 58.7531 423.008 58.3663 423.524 58.0655C424.083 57.7646 424.47 57.3778 424.684 56.9051C424.77 56.6902 424.813 56.4753 424.813 56.2604C424.813 56.0025 424.856 55.7447 424.942 55.4868C425.286 54.6272 425.823 53.8536 426.554 53.166C427.285 52.4783 427.843 51.7047 428.23 50.8452C428.316 50.6303 428.359 50.4369 428.359 50.265C428.402 50.0501 428.466 49.8352 428.552 49.6203C429.24 48.0301 430.078 46.6118 431.067 45.3655C432.098 44.1191 432.979 42.8728 433.71 41.6264ZM442.735 41.433C442.219 41.8198 441.768 42.2711 441.381 42.7868C441.038 43.2596 440.565 43.6249 439.963 43.8828C439.791 44.2696 439.576 44.6349 439.318 44.9787C439.104 45.3225 438.803 45.6019 438.416 45.8168C438.287 46.5044 438.029 47.1061 437.642 47.6218C437.255 48.0946 436.89 48.5673 436.546 49.0401C436.374 49.212 436.224 49.4054 436.095 49.6203C435.966 49.7922 435.816 49.9856 435.644 50.2005C435.429 50.4154 435.214 50.5873 434.999 50.7162C434.784 50.8022 434.591 50.9311 434.419 51.103C434.161 51.4469 433.882 51.9196 433.581 52.5213C433.28 53.123 433.001 53.6173 432.743 54.0041C432.528 54.2189 432.313 54.4338 432.098 54.6487C431.883 54.8636 431.819 55.143 431.905 55.4868C432.034 55.8306 432.292 56.067 432.678 56.1959C433.065 56.2819 433.495 56.3463 433.968 56.3893C434.483 56.3893 434.978 56.3678 435.45 56.3249C435.923 56.2819 436.31 56.2604 436.611 56.2604C437.213 56.2604 437.814 56.2819 438.416 56.3249C439.061 56.3249 439.662 56.3034 440.221 56.2604C440.823 56.2174 441.338 56.11 441.768 55.9381C442.241 55.7661 442.606 55.5083 442.864 55.1645C443.294 53.7892 443.401 52.4139 443.186 51.0386C442.972 49.6203 442.778 48.2235 442.606 46.8482C442.52 46.4614 442.456 46.0316 442.413 45.5589C442.37 45.0861 442.37 44.6564 442.413 44.2696C442.456 43.8398 442.585 43.4315 442.8 43.0447C443.057 42.6149 443.1 42.1207 442.929 41.5619L442.735 41.433Z" fill="#FCC500"></path>
  <path d="M460.175 69.8629C459.272 70.1638 458.477 70.0563 457.789 69.5406C457.102 68.9819 456.672 68.3372 456.5 67.6066C456.414 67.2627 456.414 66.747 456.5 66.0594C456.586 65.3287 456.715 64.7485 456.887 64.3188C457.059 63.846 457.424 63.2873 457.983 62.6426C458.542 61.9979 458.971 61.2673 459.272 60.4507C459.573 59.6771 459.809 58.9465 459.981 58.2589C460.196 57.5282 460.497 56.948 460.884 56.5183C461.185 56.2174 461.507 55.9595 461.851 55.7447C462.195 55.4868 462.388 55.1645 462.431 54.7777C462.431 54.4338 462.324 54.133 462.109 53.8751C461.937 53.6173 461.872 53.2734 461.915 52.8436C461.915 52.4568 462.023 51.9626 462.238 51.3609C462.496 50.7592 462.732 50.222 462.947 49.7492C463.42 48.7178 463.785 47.6648 464.043 46.5904C464.129 46.2895 464.193 45.9457 464.236 45.5589C464.322 45.1291 464.408 44.8068 464.494 44.5919C464.623 44.42 464.752 44.1406 464.881 43.7538C465.053 43.367 465.246 42.9802 465.461 42.5934C465.676 42.2066 465.912 41.8628 466.17 41.5619C466.428 41.2181 466.707 40.9817 467.008 40.8528C467.352 40.7239 467.717 40.6379 468.104 40.5949C468.534 40.509 468.921 40.3801 469.265 40.2081C469.651 40.0792 469.888 39.9288 469.974 39.7569C470.06 39.585 470.275 39.413 470.618 39.2411C470.876 39.1552 471.134 39.1122 471.392 39.1122C471.693 39.1122 471.994 39.0692 472.295 38.9833C472.638 38.8543 473.004 38.6609 473.39 38.4031C473.777 38.1452 474.229 38.1667 474.744 38.4675C474.959 38.5965 475.174 38.9833 475.389 39.6279C475.604 40.2726 475.819 40.8743 476.034 41.433C476.12 41.7339 476.227 42.0992 476.356 42.5289C476.528 42.9587 476.678 43.41 476.807 43.8828C476.936 44.3125 477.065 44.7208 477.194 45.1076C477.323 45.4514 477.43 45.7093 477.516 45.8812C477.731 46.311 477.882 46.7623 477.968 47.235C478.054 47.7078 478.183 48.1376 478.354 48.5244C478.569 48.9541 478.784 49.3624 478.999 49.7492C479.214 50.136 479.429 50.5658 479.644 51.0386C479.859 51.5113 480.052 51.9626 480.224 52.3924C480.396 52.8222 480.611 53.2734 480.869 53.7462C481.041 54.09 481.298 54.4123 481.642 54.7132C481.986 54.9711 482.201 55.2719 482.287 55.6157C482.416 55.9595 482.416 56.3463 482.287 56.7761C482.158 57.1629 482.136 57.5282 482.222 57.8721C482.351 58.3448 482.631 58.7316 483.061 59.0325C483.49 59.3333 483.877 59.6556 484.221 59.9995C484.436 60.2573 484.565 60.5152 484.608 60.7731C484.651 61.0309 484.844 61.2029 485.188 61.2888C485.274 60.4722 485.36 59.7631 485.446 59.1614C485.575 58.5597 485.704 57.9795 485.833 57.4208C485.962 56.8191 486.09 56.2174 486.219 55.6157C486.348 54.9711 486.456 54.2619 486.542 53.4883C486.972 52.9296 487.358 52.4139 487.702 51.9411C488.046 51.4254 488.196 50.7592 488.153 49.9426C488.11 49.6848 488.024 49.4269 487.896 49.169C487.81 48.9112 487.788 48.6318 487.831 48.331C487.874 47.9012 487.96 47.5144 488.089 47.1706C488.218 46.8267 488.39 46.397 488.605 45.8812C488.734 45.5374 488.841 45.1936 488.927 44.8498C489.013 44.463 489.12 44.0547 489.249 43.6249C489.378 43.2811 489.486 43.0017 489.572 42.7868C489.701 42.5719 489.83 42.3785 489.958 42.2066C490.087 41.9917 490.195 41.7768 490.281 41.5619C490.367 41.3041 490.453 40.9388 490.539 40.466C490.668 39.7354 490.732 39.1122 490.732 38.5965C490.732 38.0807 490.84 37.565 491.054 37.0493C491.398 36.2757 491.935 35.631 492.666 35.1153C493.44 34.5565 494.17 34.1053 494.858 33.7615C496.061 33.8044 497.05 34.1268 497.823 34.7285C498.597 35.2872 499.091 35.9748 499.306 36.7914C499.607 37.565 499.586 38.2097 499.242 38.7254C498.898 39.1982 498.554 39.7354 498.21 40.3371C497.995 40.7239 497.823 41.0892 497.695 41.433C497.609 41.7768 497.523 42.1207 497.437 42.4645C497.394 42.7653 497.329 43.0877 497.243 43.4315C497.2 43.7753 497.093 44.1621 496.921 44.5919C496.792 45.0217 496.599 45.387 496.341 45.6878C496.083 45.9457 495.911 46.225 495.825 46.5259C495.954 47.1276 495.997 47.6218 495.954 48.0086C495.954 48.3954 495.889 48.7607 495.761 49.1046C495.675 49.4054 495.567 49.7277 495.438 50.0716C495.352 50.3724 495.266 50.7162 495.18 51.103C495.094 51.4039 495.051 51.7047 495.051 52.0056C495.051 52.3064 495.008 52.5858 494.922 52.8436C494.793 53.3594 494.622 53.8321 494.407 54.2619C494.192 54.6917 493.977 55.1 493.762 55.4868C493.461 56.1315 493.117 56.7332 492.731 57.2919C492.387 57.8506 492.172 58.6027 492.086 59.5482C492.043 60.1499 492 60.6871 491.957 61.1599C491.957 61.5897 491.935 61.9979 491.892 62.3847C491.892 62.7715 491.828 63.1798 491.699 63.6096C491.613 64.0394 491.484 64.5551 491.312 65.1568C491.226 65.5006 491.097 65.8445 490.925 66.1883C490.797 66.4891 490.689 66.8115 490.603 67.1553C490.345 68.2727 489.98 69.1323 489.507 69.734C489.034 70.2927 488.325 70.8729 487.38 71.4746C486.864 71.6035 486.348 71.7324 485.833 71.8614C485.317 71.9903 484.801 72.0548 484.285 72.0548C483.813 72.0548 483.361 71.9688 482.932 71.7969C482.502 71.668 482.136 71.3671 481.836 70.8944C481.621 70.5506 481.384 70.0563 481.127 69.4116C480.912 68.724 480.654 68.0578 480.353 67.4132C480.224 67.1123 480.074 66.833 479.902 66.5751C479.773 66.2742 479.665 65.9734 479.579 65.6726C479.364 65.1998 479.214 64.7915 479.128 64.4477C479.085 64.1039 478.956 63.6311 478.741 63.0294C478.44 62.0839 477.968 61.3748 477.323 60.902C476.678 60.4293 476.12 59.9135 475.647 59.3548C475.604 58.925 475.539 58.5382 475.453 58.1944C475.367 57.8506 475.174 57.5712 474.873 57.3563C474.787 57.2704 474.68 57.2274 474.551 57.2274C474.422 57.1844 474.315 57.0985 474.229 56.9695C474.1 56.7976 474.014 56.6042 473.971 56.3893C473.928 56.1315 473.842 55.9381 473.713 55.8091C473.627 55.7232 473.498 55.5298 473.326 55.2289C473.154 54.9281 472.982 54.6272 472.81 54.3264C472.681 54.0255 472.531 53.7677 472.359 53.5528C472.187 53.2949 472.058 53.1875 471.972 53.2305C471.757 53.2305 471.542 53.4024 471.328 53.7462C471.156 54.09 470.962 54.4768 470.747 54.9066C470.575 55.3364 470.403 55.7661 470.232 56.1959C470.06 56.5827 469.909 56.8621 469.78 57.034C469.565 57.3348 469.394 57.7861 469.265 58.3878C469.179 58.9465 469.05 59.3978 468.878 59.7416C468.577 60.2573 468.298 60.7731 468.04 61.2888C467.825 61.8045 467.889 62.3633 468.233 62.9649C468.233 63.2658 468.147 63.5237 467.975 63.7386C467.846 63.9105 467.825 64.2113 467.911 64.6411C467.653 65.1138 467.395 65.6511 467.137 66.2528C466.922 66.8545 466.686 67.5206 466.428 68.2512C466.299 68.681 466.192 69.1323 466.106 69.605C466.02 70.0348 465.912 70.4646 465.783 70.8944C465.654 71.2812 465.461 71.625 465.203 71.9258C464.988 72.2267 464.687 72.3986 464.301 72.4416C463.785 72.5275 463.355 72.4631 463.011 72.2482C462.667 72.0333 462.345 71.7754 462.044 71.4746C461.743 71.2167 461.443 70.9374 461.142 70.6365C460.841 70.2927 460.519 70.0348 460.175 69.8629Z" fill="#FCC500"></path>
  <path d="M520.549 44.0762C520.936 44.2481 521.194 44.4844 521.323 44.7853C521.452 45.0432 521.538 45.3225 521.581 45.6234C521.667 45.9242 521.753 46.225 521.839 46.5259C521.925 46.8267 522.139 47.0631 522.483 47.235C522.569 47.321 522.72 47.4284 522.935 47.5574C523.149 47.6863 523.386 47.8367 523.644 48.0086C523.902 48.1376 524.138 48.2665 524.353 48.3954C524.611 48.4814 524.804 48.5029 524.933 48.4599C525.191 48.4169 525.427 48.2235 525.642 47.8797C525.857 47.5359 526.029 47.1491 526.158 46.7193C526.33 46.2465 526.437 45.7738 526.48 45.301C526.523 44.8283 526.502 44.4415 526.416 44.1406C526.33 44.0117 526.093 43.8398 525.707 43.6249C525.32 43.367 525.019 43.1951 524.804 43.1091C524.202 42.8943 523.644 42.6364 523.128 42.3355C522.612 42.0347 522.054 41.7768 521.452 41.5619C521.194 41.476 520.915 41.3471 520.614 41.1751C520.356 40.9603 520.098 40.8528 519.84 40.8528C519.668 40.8098 519.475 40.8528 519.26 40.9817C519.045 41.0677 518.83 41.1107 518.615 41.1107C518.357 41.1537 518.035 41.1751 517.648 41.1751C517.304 41.1322 516.939 41.1322 516.552 41.1751C516.166 41.2181 515.757 41.2826 515.327 41.3685C514.941 41.4545 514.597 41.6049 514.296 41.8198C513.737 42.2926 513.329 42.8298 513.071 43.4315C512.856 43.9902 512.555 44.6349 512.169 45.3655C512.083 45.5374 511.932 45.7308 511.717 45.9457C511.502 46.1606 511.395 46.4184 511.395 46.7193C511.395 46.8912 511.459 47.0416 511.588 47.1706C511.76 47.2995 511.889 47.4929 511.975 47.7508C512.104 48.0086 512.19 48.288 512.233 48.5888C512.276 48.8467 512.34 49.0831 512.426 49.298C512.555 49.4269 512.684 49.5558 512.813 49.6848C512.942 49.7707 513.05 49.8567 513.136 49.9426C513.265 50.0716 513.35 50.222 513.393 50.3939C513.479 50.5658 513.587 50.6948 513.716 50.7807C513.931 50.9096 514.296 51.146 514.812 51.4898C515.37 51.7907 515.886 51.9841 516.359 52.07C517.176 52.242 517.906 52.5213 518.551 52.9081C519.238 53.2519 519.905 53.5528 520.549 53.8107C521.022 54.0255 521.387 54.2834 521.645 54.5843C521.946 54.8421 522.204 55.1215 522.419 55.4223C522.634 55.6802 522.849 55.9381 523.063 56.1959C523.321 56.4538 523.665 56.6472 524.095 56.7761C524.31 56.8621 524.503 56.9051 524.675 56.9051C524.847 56.9051 525.04 56.948 525.255 57.034C525.47 57.12 525.685 57.2704 525.9 57.4853C526.115 57.6572 526.351 57.8506 526.609 58.0655C526.781 58.2374 526.931 58.4308 527.06 58.6457C527.232 58.8176 527.361 58.9895 527.447 59.1614C527.576 59.4193 527.662 59.7631 527.705 60.1929C527.748 60.5797 527.77 60.902 527.77 61.1599C527.813 62.1913 527.791 63.0079 527.705 63.6096C527.619 64.2113 527.469 64.77 527.254 65.2858C527.039 65.8015 526.76 66.3172 526.416 66.833C526.115 67.3487 525.771 68.0149 525.384 68.8314C524.826 69.0893 524.245 69.3901 523.644 69.734C523.042 70.0348 522.526 70.3572 522.096 70.701C521.882 70.8729 521.581 71.0878 521.194 71.3456C520.807 71.6035 520.463 71.7754 520.162 71.8614C519.561 72.0763 518.83 72.2052 517.971 72.2482C517.111 72.2912 516.316 72.4416 515.585 72.6994C515.156 72.8284 514.64 72.8499 514.038 72.7639C513.479 72.678 512.964 72.6565 512.491 72.6994C511.932 72.7854 511.459 72.8714 511.073 72.9573C510.686 73.0863 510.235 73.1077 509.719 73.0218C509.117 72.9358 508.451 72.6994 507.72 72.3126C506.99 71.9688 506.345 71.625 505.786 71.2812C505.571 71.1952 505.4 71.0878 505.271 70.9588C505.142 70.7869 504.97 70.6365 504.755 70.5076C504.454 70.3357 504.153 70.2282 503.852 70.1852C503.552 70.0993 503.272 69.9489 503.014 69.734C502.756 69.5191 502.52 69.3257 502.305 69.1538C502.09 68.9389 501.875 68.724 501.66 68.5091C501.145 68.1653 500.565 67.8215 499.92 67.4776C499.318 67.0908 498.888 66.704 498.631 66.3172C498.459 66.1023 498.351 65.823 498.308 65.4792C498.308 65.0924 498.222 64.727 498.05 64.3832C497.964 64.0824 497.814 63.8245 497.599 63.6096C497.384 63.3947 497.255 63.1798 497.212 62.9649C497.083 62.3633 497.148 61.6971 497.406 60.9665C497.664 60.2359 497.9 59.6127 498.115 59.0969C498.931 58.968 499.598 59.054 500.113 59.3548C500.672 59.6127 501.145 59.978 501.532 60.4507C501.918 60.9235 502.262 61.4607 502.563 62.0624C502.864 62.6211 503.165 63.1154 503.466 63.5452C503.809 64.1039 504.347 64.5336 505.077 64.8345C505.808 65.1353 506.517 65.4362 507.205 65.737C507.463 65.866 507.699 65.9949 507.914 66.1238C508.172 66.2098 508.408 66.2957 508.623 66.3817C509.182 66.5966 509.654 66.833 510.041 67.0908C510.471 67.3057 510.922 67.4347 511.395 67.4776C511.825 67.4776 512.233 67.4561 512.62 67.4132C513.05 67.3272 513.522 67.2413 514.038 67.1553C514.554 66.9834 515.07 66.9189 515.585 66.9619C516.101 66.9619 516.595 66.8545 517.068 66.6396C517.627 66.4247 517.949 66.1668 518.035 65.866C518.121 65.5651 518.314 65.1568 518.615 64.6411C518.443 63.8245 518.25 63.2443 518.035 62.9005C517.82 62.5567 517.433 62.1484 516.875 61.6756C516.66 61.5037 516.402 61.3748 516.101 61.2888C515.843 61.1599 515.607 61.0309 515.392 60.902C514.489 60.3433 513.501 59.7846 512.426 59.2259C511.352 58.6672 510.17 58.2804 508.881 58.0655C508.064 57.8076 507.205 57.4638 506.302 57.034C505.443 56.5612 504.819 55.9381 504.433 55.1645C504.304 54.9925 504.218 54.8206 504.175 54.6487C504.175 54.4768 504.132 54.2834 504.046 54.0685C503.702 53.209 503.208 52.3924 502.563 51.6188C501.961 50.8452 501.553 49.9641 501.338 48.9756C501.252 48.6748 501.231 48.3739 501.274 48.0731C501.317 47.7293 501.36 47.4069 501.403 47.1061C501.489 46.8053 501.553 46.4829 501.596 46.1391C501.639 45.7953 501.618 45.43 501.532 45.0432C501.703 44.8712 501.811 44.6993 501.854 44.5274C501.897 44.3555 501.961 44.1836 502.047 44.0117C502.219 43.7538 502.327 43.496 502.37 43.2381C502.456 42.9372 502.649 42.6579 502.95 42.4C503.251 42.1421 503.487 41.8843 503.659 41.6264C503.874 41.3256 504.089 41.0892 504.304 40.9173C504.433 40.8313 504.583 40.7883 504.755 40.7883C504.927 40.7454 505.077 40.6809 505.206 40.5949C505.421 40.466 505.614 40.3156 505.786 40.1437C505.958 39.9288 506.152 39.7354 506.367 39.5635C507.226 38.9188 508.193 38.3816 509.268 37.9518C510.342 37.479 511.438 37.1137 512.555 36.8559C512.727 36.641 513.007 36.4691 513.393 36.3401C513.78 36.1682 514.189 36.0608 514.618 36.0178C515.091 35.9318 515.542 35.8674 515.972 35.8244C516.402 35.7814 516.767 35.7384 517.068 35.6955C518.4 35.8674 519.453 36.0823 520.227 36.3401C521.044 36.598 521.796 36.8773 522.483 37.1782C523.214 37.4361 523.988 37.6939 524.804 37.9518C525.621 38.2097 526.674 38.4246 527.963 38.5965C528.479 38.9833 529.016 39.456 529.575 40.0147C530.176 40.5305 530.692 41.1107 531.122 41.7553C531.552 42.4 531.852 43.0877 532.024 43.8183C532.239 44.5059 532.196 45.2151 531.895 45.9457C531.681 46.3755 531.509 46.8697 531.38 47.4284C531.251 47.9442 531.057 48.4169 530.8 48.8467C530.585 49.1905 530.348 49.5988 530.09 50.0716C529.875 50.5443 529.618 50.9311 529.317 51.232C528.715 51.8337 527.941 52.2634 526.996 52.5213C526.05 52.7792 525.126 52.8651 524.224 52.7792C523.966 52.3494 523.558 51.9841 522.999 51.6832C522.483 51.3824 521.946 51.0816 521.387 50.7807C520.872 50.4369 520.377 50.0716 519.905 49.6848C519.475 49.255 519.195 48.7393 519.067 48.1376C518.938 47.4069 518.959 46.6333 519.131 45.8168C519.346 45.0002 519.819 44.42 520.549 44.0762Z" fill="#FCC500"></path>
</svg>
